<svg width="653" height="184" viewBox="0 0 653 184" fill="none" xmlns="http://www.w3.org/2000/svg">
<path d="M155.717 53.5614C162.678 53.5614 168.32 48.211 168.32 41.6108C168.32 35.0106 162.678 29.6602 155.717 29.6602C148.757 29.6602 143.114 35.0106 143.114 41.6108C143.114 48.211 148.757 53.5614 155.717 53.5614Z" fill="var(--svg-bg, white)" stroke="var(--svg-fg, currentColor)" stroke-width="8"/>
<path d="M118.923 81.7031L125.189 81.7536V102.289H72.1146V151.943H44.2461C44.2461 112.926 77.777 81.3875 118.923 81.7073V81.7031Z" fill="var(--svg-bg, white)" stroke="var(--svg-fg, currentColor)" stroke-width="8"/>
<path d="M168.32 64.9219V151.943H143.114V88.8232C143.114 75.6227 154.399 64.9219 168.32 64.9219Z" fill="var(--svg-bg, white)" stroke="var(--svg-fg, currentColor)" stroke-width="8"/>
<path d="M238.252 80.9117H211.01V124.001C211.01 128.041 211.72 130.734 213.14 132.081C214.56 133.427 217.4 134.1 221.66 134.1C223.08 134.1 224.438 134.046 225.743 133.932C227.043 133.823 228.285 133.654 229.47 133.427V151.942C227.34 152.279 224.97 152.502 222.37 152.616C219.765 152.725 217.222 152.784 214.737 152.784C210.832 152.784 207.131 152.531 203.643 152.026C200.151 151.521 197.075 150.541 194.413 149.081C191.75 147.625 189.647 145.546 188.111 142.853C186.571 140.16 185.804 136.625 185.804 132.249V62.7333C185.804 49.5329 197.089 38.832 211.01 38.832V64.9215H236.393" fill="var(--svg-bg, white)"/>
<path d="M238.252 80.9117H211.01V124.001C211.01 128.041 211.72 130.734 213.14 132.081C214.56 133.427 217.4 134.1 221.66 134.1C223.08 134.1 224.438 134.046 225.743 133.932C227.043 133.823 228.285 133.654 229.47 133.427V151.942C227.34 152.279 224.97 152.502 222.37 152.616C219.765 152.725 217.222 152.784 214.737 152.784C210.832 152.784 207.131 152.531 203.643 152.026C200.151 151.521 197.075 150.541 194.413 149.081C191.75 147.625 189.647 145.546 188.111 142.853C186.571 140.16 185.804 136.625 185.804 132.249V62.7333C185.804 49.5329 197.089 38.832 211.01 38.832V64.9215H236.393" stroke="var(--svg-fg, currentColor)" stroke-width="8"/>
<path d="M552.792 64.9248L549.952 77.0438H550.307C558.472 67.3949 569.18 62.5684 582.436 62.5684C600.302 62.5684 609.239 70.3699 609.239 85.9647C609.239 86.8652 609.119 88.014 608.884 89.4152C608.644 90.8207 608.378 92.2514 608.085 93.7074C607.788 95.1675 607.491 96.5435 607.198 97.8312C606.9 99.123 606.692 100.162 606.577 100.945L595.216 151.946H570.01L581.193 100.945C581.428 99.5985 581.752 97.8059 582.169 95.5589C582.582 93.316 582.791 91.5781 582.791 90.341C582.791 87.7615 581.517 85.628 578.974 83.9449C576.427 82.2617 573.676 81.4201 570.72 81.4201C566.931 81.4201 563.589 82.1228 560.691 83.5241C557.789 84.9295 555.304 86.7516 553.236 88.9944C551.164 91.2415 549.446 93.821 548.088 96.7371C546.726 99.6574 545.692 102.628 544.982 105.658L534.687 151.946H509.658L528.651 64.9248H552.792Z" fill="var(--svg-bg, white)" stroke="var(--svg-fg, currentColor)" stroke-width="8"/>
<path d="M457.827 115.757C457.827 115.311 457.885 114.806 458.005 114.242H525.635C526.58 109.42 527.055 104.875 527.055 100.608C527.055 94.3259 526.016 88.8009 523.948 84.029C521.876 79.2614 518.978 75.2764 515.251 72.0784C511.523 68.8803 507.023 66.4986 501.76 64.9248C496.493 63.3553 490.666 62.5684 484.276 62.5684C476.465 62.5684 469.423 64.058 463.153 67.0288C456.878 70.0038 451.584 73.9888 447.266 78.9794C442.943 83.9743 439.602 89.6972 437.237 96.148C434.867 102.603 433.687 109.306 433.687 116.262C433.687 122.549 434.663 128.044 436.615 132.757C438.568 137.47 441.319 141.426 444.869 144.624C448.42 147.822 452.706 150.208 457.739 151.777C462.766 153.347 468.358 154.134 474.513 154.134C481.138 154.134 486.965 153.515 491.997 152.282C497.025 151.049 501.432 149.168 505.221 146.644C509.007 144.119 512.26 141.005 514.984 137.302C517.705 133.599 520.07 129.282 522.085 124.341H496.879C495.929 125.688 494.895 127.093 493.772 128.549C492.645 130.01 491.345 131.301 489.867 132.421C488.385 133.544 486.672 134.47 484.72 135.198C482.767 135.93 480.548 136.292 478.063 136.292C471.198 136.292 466.108 134.722 462.798 131.579C459.483 128.44 457.827 124.341 457.827 119.292V115.757V115.757ZM464.129 92.0242C465.487 89.7813 467.173 87.8162 469.188 86.133C471.198 84.4498 473.563 83.1033 476.288 82.0933C479.008 81.0834 482.146 80.5785 485.696 80.5785C489.246 80.5785 492.321 81.1129 494.571 82.1775C496.817 83.2463 498.534 84.677 499.719 86.4696C500.899 88.2664 501.698 90.2568 502.115 92.445C502.528 94.6331 502.736 96.8507 502.736 99.0935H460.667C461.613 96.6277 462.766 94.2712 464.129 92.0242V92.0242Z" fill="var(--svg-bg, white)" stroke="var(--svg-fg, currentColor)" stroke-width="8"/>
<path d="M378.132 115.757C378.132 115.311 378.19 114.806 378.31 114.242H445.939C446.885 109.42 447.359 104.875 447.359 100.608C447.359 94.3259 446.321 88.8009 444.253 84.029C442.181 79.2614 439.283 75.2764 435.555 72.0784C431.828 68.8803 427.328 66.4986 422.065 64.9248C416.797 63.3553 410.971 62.5684 404.58 62.5684C396.77 62.5684 389.728 64.058 383.457 67.0288C377.182 70.0038 371.888 73.9888 367.57 78.9794C363.248 83.9743 359.907 89.6972 357.541 96.148C355.172 102.603 353.991 109.306 353.991 116.262C353.991 122.549 354.968 128.044 356.92 132.757C358.873 137.47 361.624 141.426 365.174 144.624C368.724 147.822 373.011 150.208 378.043 151.777C383.071 153.347 388.663 154.134 394.818 154.134C401.443 154.134 407.27 153.515 412.302 152.282C417.33 151.049 421.736 149.168 425.526 146.644C429.311 144.119 432.564 141.005 435.289 137.302C438.009 133.599 440.375 129.282 442.389 124.341H417.183C416.234 125.688 415.2 127.093 414.077 128.549C412.95 130.01 411.65 131.301 410.172 132.421C408.69 133.544 406.977 134.47 405.024 135.198C403.072 135.93 400.853 136.292 398.368 136.292C391.503 136.292 386.413 134.722 383.102 131.579C379.787 128.44 378.132 124.341 378.132 119.292V115.757V115.757ZM384.434 92.0242C385.791 89.7813 387.478 87.8162 389.492 86.133C391.503 84.4498 393.868 83.1033 396.593 82.0933C399.313 81.0834 402.45 80.5785 406.001 80.5785C409.551 80.5785 412.626 81.1129 414.876 82.1775C417.121 83.2463 418.839 84.677 420.023 86.4696C421.204 88.2664 422.003 90.2568 422.42 92.445C422.833 94.6331 423.041 96.8507 423.041 99.0935H380.972C381.917 96.6277 383.071 94.2712 384.434 92.0242Z" fill="var(--svg-bg, white)" stroke="var(--svg-fg, currentColor)" stroke-width="8"/>
<path d="M304.91 151.947L301.715 90.8469H301.36L272.959 151.947H246.51L236.393 64.9258H262.131L265.681 126.194H266.036L294.26 64.9258H319.82L322.661 125.689H323.016L352.482 64.9258H379.108L331.181 151.947H304.91Z" fill="var(--svg-bg, white)" stroke="var(--svg-fg, currentColor)" stroke-width="8"/>
<path d="M44.2461 64.9225H72.1146V53.4558L133.354 53.9818V31.7637H44.2461V64.9225Z" fill="var(--svg-bg, white)" stroke="var(--svg-fg, currentColor)" stroke-width="8"/>
</svg>
