<svg width="653" height="184" viewBox="0 0 653 184" fill="none" xmlns="http://www.w3.org/2000/svg">
<path d="M155.668 52.7705C162.641 52.7705 168.294 47.2254 168.294 40.3853C168.294 33.5451 162.641 28 155.668 28C148.696 28 143.043 33.5451 143.043 40.3853C143.043 47.2254 148.696 52.7705 155.668 52.7705Z" fill="#FFC200"/>
<path d="M118.81 81.9355L125.087 81.9879V103.27H71.9181V154.729H44C44 114.294 77.5907 81.6085 118.81 81.9399V81.9355Z" fill="#0086FF"/>
<path d="M168.294 64.543V154.729H143.043V89.3135C143.043 75.633 154.348 64.543 168.294 64.543Z" fill="#0086FF"/>
<path d="M238.351 81.1159H211.059V125.773C211.059 129.959 211.771 132.75 213.193 134.146C214.616 135.541 217.461 136.239 221.729 136.239C223.151 136.239 224.512 136.182 225.819 136.065C227.121 135.951 228.366 135.777 229.553 135.541V154.73C227.419 155.079 225.045 155.31 222.44 155.427C219.83 155.541 217.283 155.602 214.794 155.602C210.882 155.602 207.174 155.34 203.68 154.817C200.181 154.294 197.1 153.277 194.433 151.764C191.766 150.255 189.658 148.101 188.12 145.31C186.578 142.519 185.809 138.856 185.809 134.32V62.2764C185.809 48.5959 197.114 37.5059 211.059 37.5059V64.5441H236.488" fill="#0086FF"/>
<path d="M553.452 64.5476L550.607 77.1073H550.963C559.142 67.1075 569.87 62.1055 583.148 62.1055C601.046 62.1055 610 70.1908 610 86.3527C610 87.2859 609.88 88.4765 609.644 89.9287C609.404 91.3853 609.137 92.868 608.844 94.3769C608.546 95.8902 608.248 97.3162 607.955 98.6507C607.657 99.9895 607.448 101.067 607.332 101.878L595.952 154.733H570.701L581.904 101.878C582.139 100.482 582.464 98.6245 582.882 96.2958C583.295 93.9713 583.504 92.1702 583.504 90.8881C583.504 88.2148 582.228 86.0038 579.681 84.2594C577.129 82.515 574.373 81.6428 571.412 81.6428C567.616 81.6428 564.268 82.3711 561.365 83.8233C558.458 85.2799 555.968 87.1682 553.897 89.4926C551.821 91.8214 550.1 94.4947 548.74 97.5168C547.375 100.543 546.339 103.622 545.628 106.762L535.314 154.733H510.241L529.268 64.5476H553.452V64.5476Z" fill="#00DBFF"/>
<path d="M458.319 117.229C458.319 116.766 458.376 116.243 458.496 115.659H526.247C527.194 110.661 527.669 105.951 527.669 101.529C527.669 95.018 526.629 89.292 524.557 84.3466C522.481 79.4056 519.578 75.2757 515.844 71.9613C512.11 68.647 507.602 66.1786 502.33 64.5476C497.053 62.921 491.216 62.1055 484.814 62.1055C476.99 62.1055 469.935 63.6493 463.653 66.7281C457.367 69.8114 452.064 73.9412 447.738 79.1134C443.408 84.2899 440.061 90.2209 437.691 96.9063C435.317 103.596 434.135 110.543 434.135 117.752C434.135 124.267 435.113 129.963 437.069 134.847C439.025 139.731 441.781 143.831 445.338 147.145C448.894 150.459 453.188 152.932 458.23 154.559C463.267 156.185 468.868 157.001 475.034 157.001C481.671 157.001 487.508 156.36 492.549 155.082C497.586 153.804 502.001 151.855 505.797 149.238C509.589 146.622 512.848 143.395 515.577 139.557C518.303 135.719 520.672 131.245 522.69 126.125H497.44C496.488 127.521 495.452 128.977 494.328 130.486C493.198 131.999 491.896 133.338 490.416 134.498C488.931 135.663 487.215 136.622 485.259 137.376C483.303 138.135 481.08 138.51 478.59 138.51C471.713 138.51 466.614 136.884 463.298 133.626C459.977 130.373 458.319 126.125 458.319 120.892V117.229V117.229ZM464.631 92.6325C465.992 90.3081 467.681 88.2715 469.699 86.5271C471.713 84.7827 474.083 83.3872 476.812 82.3405C479.537 81.2939 482.68 80.7706 486.237 80.7706C489.793 80.7706 492.874 81.3244 495.128 82.4278C497.377 83.5354 499.098 85.0182 500.285 86.876C501.467 88.7381 502.267 90.8009 502.685 93.0686C503.099 95.3363 503.308 97.6346 503.308 99.959H461.164C462.111 97.4034 463.267 94.9613 464.631 92.6325V92.6325Z" fill="#00DBFF"/>
<path d="M378.482 117.229C378.482 116.766 378.539 116.243 378.66 115.659H446.41C447.357 110.661 447.832 105.951 447.832 101.529C447.832 95.018 446.792 89.292 444.721 84.3466C442.644 79.4056 439.742 75.2757 436.007 71.9613C432.273 68.647 427.765 66.1786 422.493 64.5476C417.216 62.921 411.379 62.1055 404.977 62.1055C397.153 62.1055 390.098 63.6493 383.816 66.7281C377.53 69.8114 372.227 73.9412 367.901 79.1134C363.571 84.2899 360.224 90.2209 357.854 96.9063C355.48 103.596 354.298 110.543 354.298 117.752C354.298 124.267 355.276 129.963 357.232 134.847C359.188 139.731 361.944 143.831 365.501 147.145C369.057 150.459 373.352 152.932 378.393 154.559C383.43 156.185 389.031 157.001 395.197 157.001C401.834 157.001 407.671 156.36 412.713 155.082C417.749 153.804 422.164 151.855 425.96 149.238C429.752 146.622 433.011 143.395 435.741 139.557C438.466 135.719 440.835 131.245 442.853 126.125H417.603C416.651 127.521 415.615 128.977 414.491 130.486C413.362 131.999 412.059 133.338 410.579 134.498C409.094 135.663 407.378 136.622 405.422 137.376C403.466 138.135 401.243 138.51 398.753 138.51C391.876 138.51 386.777 136.884 383.461 133.626C380.14 130.373 378.482 126.125 378.482 120.892V117.229V117.229ZM384.794 92.6325C386.155 90.3081 387.844 88.2715 389.862 86.5271C391.876 84.7827 394.246 83.3872 396.975 82.3405C399.7 81.2939 402.843 80.7706 406.4 80.7706C409.956 80.7706 413.037 81.3244 415.291 82.4278C417.54 83.5354 419.261 85.0182 420.448 86.876C421.63 88.7381 422.431 90.8009 422.848 93.0686C423.262 95.3363 423.471 97.6346 423.471 99.959H381.327C382.274 97.4034 383.43 94.9613 384.794 92.6325Z" fill="#00DBFF"/>
<path d="M305.128 154.732L301.927 91.4107H301.571L273.12 154.732H246.624L236.488 64.5469H262.273L265.829 128.043H266.185L294.458 64.5469H320.065L322.91 127.52H323.266L352.784 64.5469H379.458L331.445 154.732H305.128Z" fill="url(#paint0_linear_3275_888)"/>
<path d="M44 64.5444H71.9181V52.6607L133.267 53.2058V30.1797H44V64.5444Z" fill="#0086FF"/>
<defs>
<linearGradient id="paint0_linear_3275_888" x1="236.488" y1="109.64" x2="379.458" y2="109.64" gradientUnits="userSpaceOnUse">
<stop stop-color="#0086FF"/>
<stop offset="0.82" stop-color="#00DBFF"/>
</linearGradient>
</defs>
</svg>
