<svg width="350" height="350" viewBox="0 0 350 350" fill="none" xmlns="http://www.w3.org/2000/svg">
<g clip-path="url(#clip0_3275_828)">
<path d="M293.5 239.577V103.213L175 171.713V308.413L293.5 239.577Z" fill="#0055FB"/>
<path d="M174.5 34.5331L56 102.715L175 171.715L293.5 103.215L174.5 34.5331Z" fill="#00A5FF"/>
<path d="M56.3545 239.715L56 102.715L175 171.715V308.42L56.3545 239.715Z" fill="#0073F4"/>
<path d="M56.3545 239.713L56 102.713L175 171.713L56.3545 239.713Z" fill="#007DFA"/>
<path d="M175 275.098L85.5 223L86 120.107L175 171.714V275.098Z" fill="#0060E6"/>
<path d="M116.003 205.459L116 137.492L175 171.714V239.777L116.003 205.459Z" fill="#0050D5"/>
<path d="M146.016 188.176L146 155.215L175 172.036V205.779L146.016 188.176Z" fill="#0041C3"/>
<path d="M174.998 171.713L85.5 223L86 120.107L174.998 171.713L175 171.712V171.714L174.998 171.713Z" fill="#0069EB"/>
<path d="M116.062 205.488L116 137.492L175 171.714L116.062 205.488Z" fill="#0055D7"/>
<path d="M146.148 188.246L145.962 154.875L175 171.712L146.148 188.246Z" fill="#0041C3"/>
</g>
<defs>
<clipPath id="clip0_3275_828">
<rect width="350" height="350" fill="white"/>
</clipPath>
</defs>
</svg>
