<svg width="10170" height="200" viewBox="0 0 10170 200" fill="none" xmlns="http://www.w3.org/2000/svg">
<path d="M10170 0C10170 0 9984.61 18.5185 9831 18.5185C9677.39 18.5185 9492 0 9492 0V200C9492 200 9677.39 181.482 9831 181.482C9984.61 181.482 10170 200 10170 200V0Z" fill="currentColor"/>
<path d="M8814 0C8814 0 8628.61 15.7068 8475 15.7068C8321.39 15.7068 8136 0 8136 0V200C8136 200 8321.39 184.293 8475 184.293C8628.61 184.293 8814 200 8814 200V0Z" fill="currentColor"/>
<path d="M8136 0C8136 0 7950.61 14.1361 7797 14.1361C7643.39 14.1361 7458 0 7458 0V200C7458 200 7643.39 185.34 7797 185.34C7950.61 185.34 8136 200 8136 200V0Z" fill="currentColor"/>
<path d="M7458 0C7458 0 7272.61 13.089 7119 13.089C6965.39 13.089 6780 0 6780 0V200C6780 200 6965.39 186.911 7119 186.911C7272.61 186.911 7458 200 7458 200V0Z" fill="currentColor"/>
<path d="M6780 0C6780 0 6594.61 11.5183 6441 11.5183C6287.39 11.5183 6102 0 6102 0V200C6102 200 6287.39 187.958 6441 187.958C6594.61 187.958 6780 200 6780 200V0Z" fill="currentColor"/>
<path d="M6102 0C6102 0 5916.61 10.4712 5763 10.4712C5609.39 10.4712 5424 0 5424 0V200C5424 200 5609.39 189.529 5763 189.529C5916.61 189.529 6102 200 6102 200V0Z" fill="currentColor"/>
<path d="M5424 0C5424 0 5238.61 8.90052 5085 8.90052C4931.39 8.90052 4746 0 4746 0V200C4746 200 4931.39 190.576 5085 190.576C5238.61 190.576 5424 200 5424 200V0Z" fill="currentColor"/>
<path d="M4746 0C4746 0 4560.61 7.8534 4407 7.8534C4253.39 7.8534 4068 0 4068 0V200C4068 200 4253.39 192.147 4407 192.147C4560.61 192.147 4746 200 4746 200V0Z" fill="currentColor"/>
<path d="M4068 0C4068 0 3882.61 6.28272 3729 6.28272C3575.39 6.28272 3390 0 3390 0V200C3390 200 3575.39 193.194 3729 193.194C3882.61 193.194 4068 200 4068 200V0Z" fill="currentColor"/>
<path d="M3390 0C3390 0 3204.61 5.2356 3051 5.2356C2897.39 5.2356 2712 0 2712 0V200C2712 200 2897.39 194.764 3051 194.764C3204.61 194.764 3390 200 3390 200V0Z" fill="currentColor"/>
<path d="M2712 0C2712 0 2526.61 3.66492 2373 3.66492C2219.39 3.66492 2034 0 2034 0V200C2034 200 2219.39 195.812 2373 195.812C2526.61 195.812 2712 200 2712 200V0Z" fill="currentColor"/>
<path d="M2034 0C2034 0 1848.61 2.6178 1695 2.6178C1541.39 2.6178 1356 0 1356 0V200C1356 200 1541.39 197.382 1695 197.382C1848.61 197.382 2034 200 2034 200V0Z" fill="currentColor"/>
<path d="M1356 0C1356 0 1170.61 1.57068 1017 1.57068C863.391 1.57068 678 0 678 0V200C678 200 863.391 198.953 1017 198.953C1170.61 198.953 1356 200 1356 200V0Z" fill="currentColor"/>
<path d="M678 0C678 0 492.609 0 339 0C185.391 0 0 0 0 0V200C0 200 185.391 200 339 200C492.609 200 678 200 678 200V0Z" fill="currentColor"/>
<path d="M9492 0C9492 0 9306.61 16.7539 9153 16.7539C8999.39 16.7539 8814 0 8814 0V200C8814 200 8999.39 182.723 9153 182.723C9306.61 182.723 9492 200 9492 200V0Z" fill="currentColor"/>
</svg>
