<svg width="24" height="24" viewBox="0 0 24 24" fill="currentColor" xmlns="http://www.w3.org/2000/svg">
<path d="M6.76516 11.5313C6.76516 11.8268 6.79516 12.0668 6.85216 12.2438C6.91516 12.4193 6.99616 12.6113 7.10716 12.8198C7.14258 12.8749 7.16182 12.9388 7.16266 13.0043C7.16266 13.0838 7.11466 13.1648 7.01266 13.2443L6.50866 13.5803C6.44816 13.624 6.37621 13.649 6.30166 13.6523C6.22066 13.6523 6.14116 13.6133 6.06166 13.5413C5.95385 13.4253 5.85741 13.2992 5.77366 13.1648C5.68443 13.0109 5.60185 12.8533 5.52616 12.6923C4.90366 13.4288 4.12216 13.7978 3.18016 13.7978C2.50966 13.7978 1.97416 13.6043 1.58416 13.2203C1.19266 12.8363 0.993164 12.3233 0.993164 11.6828C0.993164 11.0018 1.23316 10.4498 1.71916 10.0328C2.20666 9.61578 2.85316 9.40878 3.67516 9.40878C3.94516 9.40878 4.22566 9.43278 4.52116 9.47178C4.81666 9.51228 5.12116 9.57678 5.43916 9.64878V9.06378C5.43916 8.45478 5.31166 8.03028 5.06416 7.78278C4.80916 7.53378 4.37716 7.41378 3.76216 7.41378C3.48316 7.41378 3.19666 7.44678 2.90116 7.51878C2.60757 7.58865 2.31934 7.67938 2.03866 7.79028C1.94805 7.83131 1.85485 7.86639 1.75966 7.89528C1.71842 7.90891 1.67554 7.91698 1.63216 7.91928C1.51966 7.91928 1.46416 7.83828 1.46416 7.67028V7.27728C1.46416 7.14978 1.47916 7.05228 1.51966 6.99828C1.58011 6.92468 1.65725 6.86658 1.74466 6.82878C2.02216 6.68478 2.35816 6.56478 2.74966 6.46878C3.13966 6.36378 3.55516 6.31728 3.99466 6.31728C4.94416 6.31728 5.63866 6.53328 6.08566 6.96528C6.52516 7.39728 6.74866 8.05428 6.74866 8.93628V11.5313H6.76366H6.76516ZM3.52366 12.7478C3.78616 12.7478 4.05766 12.6998 4.34566 12.6038C4.63216 12.5078 4.88866 12.3308 5.10316 12.0908C5.23179 11.9434 5.3247 11.7684 5.37466 11.5793C5.42266 11.3858 5.45566 11.1548 5.45566 10.8818V10.5458C5.21339 10.487 4.968 10.442 4.72066 10.4108C4.47195 10.3786 4.22145 10.3621 3.97066 10.3613C3.43516 10.3613 3.04366 10.4663 2.78116 10.6823C2.51716 10.8983 2.39116 11.2028 2.39116 11.6033C2.39116 11.9783 2.48566 12.2588 2.68516 12.4523C2.87716 12.6518 3.15616 12.7478 3.52366 12.7478ZM9.93316 13.6133C9.78916 13.6133 9.69316 13.5893 9.63016 13.5323C9.56566 13.4843 9.51016 13.3733 9.46216 13.2203L7.58716 7.02978C7.55018 6.92603 7.52551 6.81829 7.51366 6.70878C7.51366 6.58128 7.57816 6.50928 7.70566 6.50928H8.48866C8.63866 6.50928 8.74366 6.53328 8.79916 6.58878C8.86366 6.63678 8.91166 6.74928 8.95966 6.90078L10.3007 12.2033L11.5457 6.90078C11.5847 6.74178 11.6327 6.63678 11.6957 6.58878C11.7919 6.52983 11.904 6.50206 12.0167 6.50928H12.6542C12.8072 6.50928 12.9092 6.53328 12.9737 6.58878C13.0382 6.63678 13.0937 6.74928 13.1252 6.90078L14.3867 12.2678L15.7667 6.90078C15.7923 6.78464 15.8476 6.67714 15.9272 6.58878C16.0201 6.52988 16.1294 6.50204 16.2392 6.50928H16.9817C17.1092 6.50928 17.1812 6.57378 17.1812 6.70878C17.1812 6.74928 17.1722 6.78978 17.1662 6.83778C17.1533 6.90588 17.1342 6.97265 17.1092 7.03728L15.1847 13.2278C15.1367 13.3883 15.0812 13.4933 15.0182 13.5413C14.9276 13.5992 14.821 13.627 14.7137 13.6208H14.0282C13.8767 13.6208 13.7732 13.5968 13.7087 13.5413C13.6442 13.4843 13.5887 13.3808 13.5572 13.2203L12.3197 8.05578L11.0897 13.2143C11.0507 13.3748 11.0027 13.4783 10.9397 13.5338C10.8752 13.5908 10.7627 13.6148 10.6202 13.6148H9.93316V13.6133ZM20.1902 13.8293C19.7759 13.8298 19.3631 13.7815 18.9602 13.6853C18.5612 13.5893 18.2507 13.4843 18.0422 13.3643C17.9147 13.2923 17.8277 13.2128 17.7947 13.1393C17.7642 13.0687 17.7484 12.9927 17.7482 12.9158V12.5078C17.7482 12.3398 17.8112 12.2588 17.9312 12.2588C17.9802 12.2589 18.0288 12.267 18.0752 12.2828C18.1232 12.2993 18.1952 12.3308 18.2747 12.3638C18.5447 12.4838 18.8417 12.5798 19.1522 12.6443C19.4717 12.7073 19.7822 12.7403 20.1017 12.7403C20.6057 12.7403 20.9957 12.6518 21.2672 12.4763C21.3976 12.3973 21.5048 12.2852 21.5777 12.1514C21.6507 12.0175 21.6869 11.8667 21.6827 11.7143C21.6854 11.6114 21.6677 11.509 21.6306 11.4129C21.5935 11.3169 21.5378 11.2292 21.4667 11.1548C21.3242 11.0018 21.0527 10.8653 20.6612 10.7378L19.5032 10.3778C18.9212 10.1933 18.4892 9.92028 18.2267 9.56028C17.9697 9.22764 17.8295 8.81961 17.8277 8.39928C17.8277 8.06328 17.8997 7.76628 18.0422 7.50978C18.1862 7.25478 18.3782 7.02978 18.6182 6.85278C18.8582 6.66978 19.1282 6.53328 19.4477 6.43728C19.7672 6.34128 20.1017 6.30078 20.4527 6.30078C20.6297 6.30078 20.8127 6.30828 20.9882 6.33228C21.1712 6.35628 21.3392 6.38928 21.5072 6.42228C21.6662 6.46128 21.8192 6.50028 21.9617 6.54978C22.1057 6.59778 22.2167 6.64578 22.2977 6.69378C22.3919 6.74108 22.474 6.80932 22.5377 6.89328C22.589 6.97138 22.6137 7.06398 22.6082 7.15728V7.53378C22.6082 7.70178 22.5452 7.79028 22.4252 7.79028C22.3189 7.77815 22.216 7.74555 22.1222 7.69428C21.6398 7.48042 21.1167 7.37396 20.5892 7.38228C20.1347 7.38228 19.7747 7.45428 19.5272 7.60728C19.2797 7.75728 19.1522 7.99128 19.1522 8.31978C19.1522 8.54328 19.2317 8.73528 19.3922 8.88828C19.5512 9.03978 19.8467 9.19128 20.2697 9.32778L21.4037 9.68778C21.9782 9.87228 22.3937 10.1288 22.6412 10.4573C22.8887 10.7858 23.0072 11.1623 23.0072 11.5793C23.0072 11.9243 22.9367 12.2348 22.8002 12.5078C22.6588 12.7817 22.4604 13.0221 22.2182 13.2128C21.9707 13.4123 21.6752 13.5578 21.3317 13.6613C20.9717 13.7738 20.5967 13.8293 20.1902 13.8293Z" fill="currentColor"/>
<path fill-rule="evenodd" clip-rule="evenodd" d="M21.6974 17.7209C19.0724 19.6664 15.2564 20.6999 11.9759 20.6999C7.3784 20.6999 3.2354 18.9944 0.106395 16.1594C-0.141105 15.9344 0.0823954 15.6299 0.376395 15.8069C3.7619 17.7764 7.93639 18.9704 12.2564 18.9704C15.1679 18.9704 18.3689 18.3614 21.3149 17.1119C21.7544 16.9124 22.1294 17.3999 21.6974 17.7209Z" fill="currentColor"/>
<path fill-rule="evenodd" clip-rule="evenodd" d="M22.7906 16.4705C22.4561 16.04 20.5721 16.2635 19.7186 16.367C19.4636 16.4 19.4231 16.175 19.6541 16.007C21.1541 14.9495 23.6216 15.254 23.9081 15.6065C24.1961 15.9665 23.8286 18.4415 22.4231 19.6265C22.2086 19.811 22.0016 19.7165 22.0961 19.4765C22.4156 18.6815 23.1266 16.8965 22.7906 16.472V16.4705Z" fill="currentColor"/>
</svg>
