<svg width="28" height="28" viewBox="0 0 28 28" fill="none" xmlns="http://www.w3.org/2000/svg">
<path d="M25.7031 7.32808L25.7688 7.28433C25.6375 7.0437 25.4406 6.82495 25.2438 6.71558L14.6781 0.634326C14.5031 0.524951 14.2625 0.481201 14 0.481201C13.7375 0.481201 13.4969 0.546826 13.3219 0.634326L2.82187 6.73745C2.45 6.9562 2.1875 7.50308 2.1875 7.9187V20.1031C2.1875 20.3437 2.23125 20.6062 2.38437 20.8468L2.34062 20.8687C2.45 21.0437 2.60313 21.1968 2.75625 21.2843L13.3 27.3875C13.475 27.4968 13.7156 27.5406 13.9781 27.5406C14.2406 27.5406 14.4813 27.475 14.6563 27.3875L25.1563 21.2843C25.5281 21.0656 25.7906 20.5187 25.7906 20.1031V7.89683C25.8125 7.72183 25.7906 7.52495 25.7031 7.32808ZM14 19.3593C15.9906 19.3593 17.7406 18.2656 18.6594 16.6468L21.4813 18.3093C19.9937 20.8906 17.1938 22.6406 14 22.6406C9.23125 22.6406 5.35938 18.7687 5.35938 14C5.35938 9.2312 9.23125 5.35933 14 5.35933C17.2156 5.35933 20.0156 7.1312 21.5031 9.73433L18.6594 11.375C17.7406 9.73433 15.9906 8.64058 14 8.64058C11.0469 8.64058 8.64063 11.0468 8.64063 14C8.64063 16.9531 11.0469 19.3593 14 19.3593Z" fill="currentColor"/>
</svg>
