<svg width="48" height="48" viewBox="0 0 48 48" fill="none" xmlns="http://www.w3.org/2000/svg">
<g clip-path="url(#clip0_1641_19)">
<path d="M44.453 36C44.79 35.42 45 34.767 45 34.18V13.82C45 13.233 44.79 12.58 44.453 12L45 13.82V34.18L44.453 36Z" fill="currentColor"/>
<path d="M25.3619 47.56L43.1379 37.38C43.6499 37.086 44.116 36.58 44.453 36L43.1379 37.38L25.3619 47.56H21.6379L3.86188 37.38L2.54688 36C2.88487 36.58 3.34988 37.086 3.86188 37.38L21.6379 47.56C22.6619 48.147 24.3379 48.147 25.3619 47.56Z" fill="currentColor"/>
<path d="M44.453 12C44.116 11.42 43.65 10.9142 43.138 10.6202L25.362 0.44025C24.338 -0.14675 22.662 -0.14675 21.638 0.44025L3.862 10.6202C2.838 11.2072 2 12.6472 2 13.8202V34.1803C2 34.7673 2.20987 35.42 2.54688 36L3.86188 37.38L21.6379 47.56H25.3619L43.1379 37.38L44.453 36L45 34.18V13.82L44.453 12Z" fill="currentColor"/>
<path d="M23.5 38.2172C15.597 38.2172 9.16699 31.8393 9.16699 23.9993C9.16699 16.1593 15.597 9.78125 23.5 9.78125C28.6 9.78125 33.356 12.5032 35.913 16.8862L29.709 20.4463C29.0731 19.3642 28.1656 18.4669 27.0764 17.8432C25.9873 17.2195 24.7541 16.891 23.499 16.8903C19.549 16.8903 16.333 20.0793 16.333 23.9993C16.333 27.9193 19.548 31.1093 23.5 31.1093C26.05 31.1093 28.43 29.7452 29.71 27.5522L35.913 31.1123C33.357 35.4953 28.6 38.2172 23.5 38.2172Z" fill="currentColor"/>
<path d="M37.8327 23.2089H36.2407V21.6289H34.6477V23.2089H33.0557V24.7889H34.6477V26.3689H36.2407V24.7889H37.8327V23.2089ZM43.8057 23.2089H42.2127V21.6289H40.6197V23.2089H39.0277V24.7889H40.6197V26.3689H42.2127V24.7889H43.8057V23.2089Z" fill="currentColor"/>
</g>
<defs>
<clipPath id="clip0_1641_19">
<rect width="48" height="48" fill="currentColor"/>
</clipPath>
</defs>
</svg>
