<svg width="28" height="30" viewBox="0 0 28 30" fill="none" xmlns="http://www.w3.org/2000/svg">
<mask id="path-1-inside-1_6_190" fill="white">
<path fill-rule="evenodd" clip-rule="evenodd" d="M5.80664 6.72949L7.63674 8.5596L24.0819 25.0048L24.0818 25.0048L22.793 29.129L12.2763 29.1032L7.55926 24.412C6.89118 23.7439 6.29994 22.5635 6.01536 21.5092L5.98707 21.4992C5.88397 21.1641 5.83241 20.829 5.83241 20.5455L5.80664 19.9269V6.72949Z"/>
</mask>
<path d="M7.63674 8.5596L6.92964 9.26671L6.92964 9.26671L7.63674 8.5596ZM5.80664 6.72949L6.51375 6.02239L4.80664 4.31527V6.72949H5.80664ZM24.0819 25.0048L24.3836 25.9582L25.9529 25.4616L24.789 24.2977L24.0819 25.0048ZM24.0818 25.0048L23.7801 24.0514L23.2829 24.2088L23.1273 24.7066L24.0818 25.0048ZM22.793 29.129L22.7905 30.129L23.5276 30.1308L23.7474 29.4273L22.793 29.129ZM12.2763 29.1032L11.5711 29.8123L11.8627 30.1022L12.2738 30.1032L12.2763 29.1032ZM7.55926 24.412L6.85215 25.1191L6.8541 25.121L7.55926 24.412ZM6.01536 21.5092L6.98081 21.2486L6.84375 20.7408L6.34766 20.566L6.01536 21.5092ZM5.98707 21.4992L5.03129 21.7933L5.17949 22.2749L5.65477 22.4424L5.98707 21.4992ZM5.83241 20.5455H6.83241V20.5247L6.83155 20.5039L5.83241 20.5455ZM5.80664 19.9269H4.80664V19.9477L4.80751 19.9685L5.80664 19.9269ZM8.34385 7.85249L6.51375 6.02239L5.09953 7.4366L6.92964 9.26671L8.34385 7.85249ZM24.789 24.2977L8.34385 7.85249L6.92964 9.26671L23.3748 25.7119L24.789 24.2977ZM24.3835 25.9582L24.3836 25.9582L23.7802 24.0514L23.7801 24.0514L24.3835 25.9582ZM23.7474 29.4273L25.0363 25.3031L23.1273 24.7066L21.8385 28.8307L23.7474 29.4273ZM12.2738 30.1032L22.7905 30.129L22.7954 28.129L12.2788 28.1032L12.2738 30.1032ZM6.8541 25.121L11.5711 29.8123L12.9815 28.3942L8.26443 23.7029L6.8541 25.121ZM5.04992 21.7698C5.36349 22.9315 6.02206 24.289 6.85216 25.1191L8.26637 23.7049C7.7603 23.1988 7.23639 22.1955 6.98081 21.2486L5.04992 21.7698ZM5.65477 22.4424L5.68307 22.4524L6.34766 20.566L6.31937 20.556L5.65477 22.4424ZM4.83241 20.5455C4.83241 20.941 4.90272 21.3754 5.03129 21.7933L6.94285 21.2051C6.86522 20.9528 6.83241 20.7171 6.83241 20.5455H4.83241ZM4.80751 19.9685L4.83328 20.5871L6.83155 20.5039L6.80577 19.8852L4.80751 19.9685ZM4.80664 6.72949V19.9269H6.80664V6.72949H4.80664Z" fill="currentColor" mask="url(#path-1-inside-1_6_190)"/>
<path d="M5.85834 6.72949L0.239143 15.2356C-0.224828 15.7254 0.00715749 16.7564 0.754666 17.5297L4.00246 20.8033L6.03878 21.525C5.96145 21.1899 5.88412 20.8548 5.88412 20.5713L5.85834 19.9527V6.72949Z" fill="currentColor"/>
<path d="M20.5764 6.88405C20.2413 6.80672 19.9062 6.75517 19.6227 6.72939L18.9783 6.70361H5.80664L24.0819 24.9789L25.6801 21.3702L20.5764 6.88405Z" fill="currentColor"/>
<path d="M23.4893 8.4306C22.8191 7.76042 21.6592 7.14179 20.5766 6.88403L25.6802 21.3702L24.0821 24.9789L28.0001 23.7159V12.9672L23.4893 8.4306Z" fill="currentColor"/>
<path d="M7.44525 6.22944L14.563 1.52742L14.5941 1.50685L14.6219 1.48188C14.7172 1.39604 14.9158 1.32914 15.2378 1.40152C15.5512 1.47199 15.9136 1.66503 16.2279 1.97932L16.2293 1.98071L19.4198 5.14604L19.8012 6.26216C19.7354 6.25779 19.6708 6.25547 19.6077 6.25523L18.9728 6.22984L18.9629 6.22944H18.9529H7.44525Z" stroke="currentColor"/>
</svg>
