<svg width="24" height="24" viewBox="0 0 24 24" fill="none" xmlns="http://www.w3.org/2000/svg">
<path d="M23.0091 10.0262C22.5493 9.72316 21.9846 9.54241 21.3778 9.54241C21.3081 9.54241 21.2391 9.54466 21.1708 9.54916L21.1798 9.54841C20.8453 9.54916 20.5183 9.57916 20.2003 9.63466L20.2348 9.62941C20.0586 8.61166 19.4661 7.75816 18.6433 7.23616L18.6291 7.22791L18.3073 7.04191L18.0958 7.34791C17.8438 7.73191 17.6466 8.17891 17.5288 8.65666L17.5228 8.68591C17.4561 8.92891 17.4178 9.20791 17.4178 9.49591C17.4178 10.1192 17.5978 10.6997 17.9083 11.1894L17.9008 11.1767C17.4231 11.4009 16.8651 11.5427 16.2778 11.5697H16.2681H1.4713C1.0843 11.5704 0.770805 11.8832 0.769305 12.2694C0.768555 12.3114 0.768555 12.3617 0.768555 12.4119C0.768555 13.7252 1.0063 14.9829 1.4413 16.1447L1.4173 16.0712C1.8358 17.2959 2.6263 18.3024 3.6523 18.9819L3.6733 18.9947C4.9813 19.6719 6.5293 20.0687 8.16955 20.0687C8.3248 20.0687 8.47855 20.0649 8.6323 20.0582L8.61055 20.0589C8.62405 20.0589 8.63981 20.0589 8.65556 20.0589C9.60956 20.0589 10.5418 19.9682 11.4456 19.7949L11.3533 19.8099C12.6996 19.5579 13.8996 19.1057 14.9871 18.4802L14.9316 18.5094C15.8743 17.9582 16.6798 17.2937 17.3653 16.5204L17.3743 16.5099C18.3681 15.3399 19.1766 13.9742 19.7331 12.4862L19.7638 12.3924H19.9708C20.0121 12.3939 20.0601 12.3954 20.1081 12.3954C21.0276 12.3954 21.8631 12.0347 22.4803 11.4467L22.4788 11.4482C22.7616 11.1797 22.9858 10.8534 23.1336 10.4874L23.1403 10.4694L23.2318 10.2002L23.0091 10.0262ZM2.8423 11.1377H4.8268C4.92205 11.1369 4.9993 11.0597 4.9993 10.9644V9.19816C4.9993 9.10291 4.92205 9.02491 4.8268 9.02416H2.8423C2.74705 9.02491 2.6698 9.10216 2.6698 9.19741V10.9644C2.6698 11.0597 2.74705 11.1377 2.8423 11.1377ZM5.5753 11.1377H7.55831C7.65356 11.1377 7.73156 11.0604 7.73156 10.9644V9.19816C7.73156 9.10291 7.65431 9.02491 7.55906 9.02416H5.57455C5.47855 9.02416 5.40056 9.10216 5.40056 9.19816V10.9644C5.40131 11.0604 5.4793 11.1377 5.5753 11.1377ZM8.34881 11.1377H10.3333C10.4286 11.1369 10.5058 11.0597 10.5058 10.9644V9.19816C10.5058 9.10291 10.4286 9.02491 10.3333 9.02416H8.34881C8.25356 9.02491 8.17631 9.10216 8.17631 9.19741V10.9644C8.17631 11.0597 8.25356 11.1377 8.34956 11.1377H8.34881ZM11.0908 11.1377H13.0731C13.1691 11.1377 13.2463 11.0604 13.2471 10.9644V9.19816C13.2471 9.10216 13.1691 9.02416 13.0731 9.02416H11.0908C10.9956 9.02416 10.9176 9.10141 10.9176 9.19741V10.9644C10.9176 11.0597 10.9948 11.1377 11.0901 11.1377C11.0901 11.1377 11.0901 11.1377 11.0908 11.1377ZM5.5753 8.59666H7.55831C7.65431 8.59591 7.73156 8.51866 7.73156 8.42266V6.65641C7.73156 6.56116 7.65431 6.48316 7.55831 6.48316H5.5753C5.4793 6.48316 5.40205 6.56041 5.4013 6.65641V8.42266C5.40205 8.51866 5.4793 8.59591 5.5753 8.59666ZM8.34881 8.59666H10.3333C10.4286 8.59591 10.5058 8.51791 10.5058 8.42266V6.65641C10.5058 6.56116 10.4286 6.48316 10.3326 6.48316H8.35031C8.25506 6.48316 8.17706 6.56041 8.17706 6.65641V8.42266C8.17781 8.51866 8.25431 8.59591 8.35031 8.59666H8.34881ZM11.0908 8.59666H13.0731C13.1691 8.59591 13.2463 8.51866 13.2471 8.42266V6.65641C13.2463 6.56041 13.1691 6.48316 13.0731 6.48316H11.0908C10.9956 6.48316 10.9176 6.56041 10.9176 6.65641V8.42266C10.9176 8.51866 10.9948 8.59591 11.0908 8.59666ZM11.0908 6.05566H13.0731C13.1691 6.05566 13.2471 5.97766 13.2471 5.88166V4.11466C13.2463 4.01866 13.1691 3.94141 13.0731 3.94141H11.0908C10.9956 3.94141 10.9176 4.01866 10.9176 4.11466V5.88166C10.9176 5.97691 10.9948 6.05491 11.0901 6.05491C11.0901 6.05491 11.0901 6.05491 11.0908 6.05491V6.05566ZM13.8561 11.1377H15.8391C15.9351 11.1377 16.0123 11.0604 16.0131 10.9644V9.19816C16.0131 9.10216 15.9351 9.02416 15.8391 9.02416H13.8561C13.7601 9.02416 13.6828 9.10141 13.6828 9.19741V10.9644C13.6828 11.0597 13.7601 11.1377 13.8561 11.1377Z" fill="currentColor"/>
</svg>
