<svg width="28" height="28" viewBox="0 0 28 28" fill="none" xmlns="http://www.w3.org/2000/svg">
<path d="M23.9163 22.5913L21.345 6.25917C21.2937 5.957 21.0405 5.73067 20.7337 5.73067C20.5633 5.73067 20.4093 5.80067 20.2962 5.915L4.08301 22.5913L13.0547 27.7573C13.3148 27.9102 13.6275 28 13.96 28C14.2913 28 14.6028 27.9102 14.8712 27.7538L23.9163 22.5913ZM8.59801 0.333667C8.49301 0.135333 8.28884 0 8.05201 0C7.74284 0 7.48617 0.232167 7.43951 0.537833L4.73984 18.2852L11.503 5.90333L8.59917 0.337167L8.59801 0.333667ZM16.6258 8.33933L14.548 4.277C14.4418 4.074 14.2365 3.93867 13.9997 3.93867C13.7628 3.93867 13.5575 4.074 13.4525 4.2735L13.4513 4.277L4.32801 20.9813L16.6258 8.33933Z" fill="currentColor"/>
</svg>
