<svg width="28" height="28" viewBox="0 0 28 28" fill="none" xmlns="http://www.w3.org/2000/svg">
<path d="M27.4415 12.7772L15.1901 0.525863C14.8563 0.209073 14.4136 0.0324707 13.9533 0.0324707C13.4931 0.0324707 13.0504 0.209073 12.7165 0.525863L10.3829 2.85945C10.3283 2.91369 10.2849 2.97821 10.2552 3.0493C10.2256 3.1204 10.2104 3.19665 10.2104 3.27367C10.2104 3.35068 10.2256 3.42693 10.2552 3.49803C10.2849 3.56912 10.3283 3.63364 10.3829 3.68788L12.4832 5.85812C12.5641 5.93889 12.6669 5.99411 12.7789 6.01693C12.8909 6.03975 13.0072 6.02915 13.1132 5.98646C13.469 5.84915 13.853 5.80112 14.2316 5.84657C14.6102 5.89201 14.9719 6.02955 15.2851 6.24715C15.5983 6.46475 15.8533 6.75578 16.028 7.09477C16.2026 7.43377 16.2915 7.8104 16.2869 8.19171C16.2839 8.48802 16.2245 8.78105 16.1119 9.05513C16.0692 9.16118 16.0586 9.27743 16.0814 9.38945C16.1043 9.50146 16.1595 9.60431 16.2402 9.6852L18.2938 11.6921C18.3747 11.7729 18.4775 11.8281 18.5896 11.8509C18.7016 11.8737 18.8178 11.8631 18.9239 11.8204C19.3863 11.6364 19.8954 11.6049 20.3769 11.7307C20.8584 11.8565 21.2871 12.133 21.6003 12.5197C21.9136 12.9064 22.095 13.3831 22.1181 13.8803C22.1412 14.3774 22.0047 14.8689 21.7287 15.283C21.4526 15.6971 21.0514 16.0121 20.5836 16.1819C20.1159 16.3518 19.606 16.3677 19.1286 16.2273C18.6511 16.0869 18.2311 15.7975 17.9298 15.4014C17.6284 15.0053 17.4616 14.5233 17.4537 14.0257C17.4573 13.7419 17.5127 13.4612 17.6171 13.1973C17.6573 13.0927 17.6666 12.9788 17.6438 12.8692C17.6211 12.7595 17.5672 12.6587 17.4887 12.5789L15.5285 10.607C15.447 10.527 15.3437 10.4728 15.2317 10.4509C15.1196 10.4291 15.0035 10.4406 14.8979 10.4841C14.7923 10.5276 14.7018 10.6011 14.6376 10.6955C14.5734 10.79 14.5383 10.9012 14.5367 11.0154V17.176C14.5363 17.2899 14.5693 17.4014 14.6315 17.4968C14.6937 17.5921 14.7824 17.6672 14.8868 17.7128C15.3781 17.9272 15.7807 18.3043 16.0267 18.7806C16.2727 19.257 16.3472 19.8035 16.2377 20.3283C16.1282 20.8531 15.8413 21.3242 15.4252 21.6624C15.0092 22.0005 14.4894 22.1851 13.9533 22.1851C13.4172 22.1851 12.8974 22.0005 12.4814 21.6624C12.0654 21.3242 11.7785 20.8531 11.669 20.3283C11.5594 19.8035 11.6339 19.257 11.88 18.7806C12.126 18.3043 12.5285 17.9272 13.0199 17.7128C13.1243 17.6672 13.213 17.5921 13.2752 17.4968C13.3374 17.4014 13.3703 17.2899 13.3699 17.176V10.852C13.3703 10.7381 13.3374 10.6266 13.2752 10.5313C13.213 10.4359 13.1243 10.3608 13.0199 10.3153C12.468 10.0734 12.031 9.62741 11.8004 9.07065C11.5699 8.51388 11.5637 7.88952 11.7831 7.32828C11.819 7.22049 11.8227 7.10455 11.7937 6.9947C11.7647 6.88484 11.7042 6.78585 11.6197 6.70988L9.50784 4.55131C9.45361 4.49662 9.38908 4.45322 9.31799 4.4236C9.2469 4.39399 9.17064 4.37874 9.09363 4.37874C9.01661 4.37874 8.94036 4.39399 8.86927 4.4236C8.79817 4.45322 8.73365 4.49662 8.67942 4.55131L0.51185 12.7189C0.184096 13.047 0 13.4919 0 13.9557C0 14.4195 0.184096 14.8643 0.51185 15.1925L12.7632 27.4555C13.0914 27.7832 13.5362 27.9673 14 27.9673C14.4638 27.9673 14.9086 27.7832 15.2368 27.4555L27.4882 15.1925C27.8159 14.8643 28 14.4195 28 13.9557C28 13.4919 27.8159 13.047 27.4882 12.7189L27.4415 12.7772Z" fill="black"/>
</svg>
