<svg width="28" height="28" viewBox="0 0 28 28" fill="none" xmlns="http://www.w3.org/2000/svg">
<path d="M13.9999 0.345459C10.6756 0.345597 7.45983 1.52861 4.92795 3.68282C2.39608 5.83703 0.713335 8.82187 0.180823 12.1033C-0.351688 15.3846 0.300781 18.7484 2.02148 21.5928C3.74219 24.4371 6.41883 26.5764 9.5725 27.6278C10.2725 27.7503 10.535 27.3303 10.535 26.9628C10.535 26.6303 10.5175 25.5278 10.5175 24.3553C6.99999 25.0028 6.08999 23.4978 5.81 22.7103C5.49931 21.9444 5.00679 21.2657 4.37501 20.7328C3.88501 20.4703 3.18502 19.8228 4.35749 19.8054C4.80519 19.8539 5.23458 20.0097 5.60928 20.2595C5.98398 20.5093 6.29294 20.8457 6.50999 21.2403C6.70147 21.5843 6.95894 21.8871 7.26765 22.1314C7.57636 22.3757 7.93025 22.5567 8.30902 22.664C8.6878 22.7713 9.08403 22.8028 9.475 22.7567C9.86597 22.7105 10.244 22.5877 10.5874 22.3953C10.648 21.6836 10.9652 21.0181 11.48 20.5229C8.36498 20.1729 5.11 18.9653 5.11 13.6104C5.09033 12.219 5.60376 10.8728 6.54499 9.84793C6.11699 8.63865 6.16707 7.31155 6.68499 6.13796C6.68499 6.13796 7.85744 5.77045 10.535 7.57295C12.8258 6.94292 15.2441 6.94292 17.5349 7.57295C20.2124 5.75296 21.3849 6.13796 21.3849 6.13796C21.9029 7.31153 21.953 8.63866 21.5249 9.84793C22.469 10.8711 22.9828 12.2184 22.9599 13.6104C22.9599 18.9828 19.6874 20.1729 16.5724 20.5229C16.9065 20.8615 17.1638 21.2681 17.3269 21.715C17.49 22.1619 17.5549 22.6386 17.5174 23.1128C17.5174 24.9854 17.4999 26.4903 17.4999 26.9628C17.4999 27.3303 17.7624 27.7678 18.4624 27.6278C21.6105 26.5678 24.2795 24.4236 25.9928 21.5778C27.7062 18.732 28.3525 15.3699 27.8163 12.0917C27.2801 8.8135 25.5963 5.83254 23.0655 3.68095C20.5348 1.52936 17.3217 0.347188 13.9999 0.345459Z" fill="currentColor"/>
</svg>
