<svg width="28" height="28" viewBox="0 0 28 28" fill="none" xmlns="http://www.w3.org/2000/svg">
<path d="M10.4165 21.4638C10.4165 21.4638 9.37375 22.0706 11.1596 22.2754C13.3235 22.5226 14.4293 22.4871 16.8132 22.0365C16.8132 22.0365 17.4412 22.4292 18.3167 22.7695C12.9707 25.0599 6.21806 22.6368 10.4165 21.4638ZM9.7629 18.4746C9.7629 18.4746 8.59303 19.3406 10.3804 19.5257C12.692 19.7644 14.517 19.7838 17.6766 19.1757C17.6766 19.1757 18.1126 19.6187 18.7992 19.8606C12.3369 21.7506 5.13918 20.0094 9.7629 18.4746Z" fill="currentColor"/>
<path d="M15.2693 13.403C16.5873 14.92 14.9237 16.2839 14.9237 16.2839C14.9237 16.2839 18.2681 14.5577 16.7325 12.3952C15.2977 10.3794 14.1979 9.37819 20.1527 5.92456C20.1527 5.92478 10.8053 8.25862 15.2693 13.403Z" fill="currentColor"/>
<path d="M22.3393 23.675C22.3393 23.675 23.1113 24.3116 21.4888 24.8036C18.404 25.7381 8.64684 26.0198 5.93697 24.841C4.96331 24.417 6.78988 23.8292 7.36453 23.7052C7.96369 23.5755 8.30581 23.5991 8.30581 23.5991C7.22234 22.8363 1.30297 25.0976 5.29953 25.7462C16.1979 27.5128 25.1658 24.9506 22.3393 23.675ZM10.9181 15.3767C10.9181 15.3767 5.95556 16.5556 9.16091 16.9841C10.5145 17.1652 13.2117 17.1237 15.7258 16.9128C17.7799 16.7402 19.8412 16.3716 19.8412 16.3716C19.8412 16.3716 19.1175 16.682 18.5934 17.0395C13.553 18.3653 3.81816 17.7478 6.621 16.3924C8.9905 15.2464 10.9181 15.3767 10.9181 15.3767ZM19.8206 20.3527C24.9439 17.6911 22.5749 15.1333 20.9213 15.4778C20.5171 15.562 20.3358 15.6353 20.3358 15.6353C20.3358 15.6353 20.4862 15.3993 20.7733 15.2978C24.0442 14.1482 26.5594 18.6891 19.7182 20.4876C19.7182 20.4872 19.7968 20.4161 19.8206 20.3527Z" fill="currentColor"/>
<path d="M16.732 0.347168C16.732 0.347168 19.5688 3.18567 14.0408 7.54907C9.60758 11.0504 13.0299 13.0463 14.0392 15.3276C11.4512 12.9929 9.55289 10.9373 10.8262 9.02432C12.6961 6.21689 17.8763 4.85517 16.732 0.347168Z" fill="currentColor"/>
<path d="M11.4218 27.5671C16.3384 27.8814 23.8906 27.3921 24.0693 25.0654C24.0693 25.0654 23.7256 25.9474 20.0056 26.6472C15.8086 27.4373 10.6312 27.3452 7.56152 26.8384C7.56152 26.8386 8.19043 27.3592 11.4218 27.5671Z" fill="currentColor"/>
</svg>
