<svg width="28" height="28" viewBox="0 0 28 28" fill="none" xmlns="http://www.w3.org/2000/svg">
<g clip-path="url(#clip0_6_230)">
<path d="M0 28H28V0H0V28ZM23.0813 21.7338C22.7838 20.6127 20.4552 20.3513 18.8627 19.1613C17.2527 18.0763 16.8688 15.4513 18.1988 13.9452C18.6538 13.3852 19.4052 12.9652 20.1938 12.7727L21.0163 12.6688C22.6088 12.6327 23.5877 13.0527 24.3227 13.8752C24.535 14.084 24.6913 14.2952 25.0063 14.7852C24.1652 15.309 24.1652 15.309 22.9588 16.0977C22.6952 15.5377 22.2752 15.1877 21.8202 15.0477C21.1202 14.8377 20.2277 15.064 20.0527 15.8177C19.9838 16.0452 20.0002 16.2552 20.1063 16.6402C20.3898 17.2877 21.3442 17.5677 22.2028 17.9702C24.6703 18.9712 25.5022 20.0445 25.7063 21.322L25.6527 21.2438C25.8463 22.3463 25.6002 23.0638 25.5663 23.1688C24.6552 26.2838 19.5802 26.3888 17.5502 24.3402C17.1302 23.8502 16.8502 23.6063 16.6052 23.0463L18.7402 21.8202C19.3177 22.6952 19.8415 23.1688 20.7877 23.3788C22.0663 23.5363 23.3613 23.0988 23.0813 21.7338ZM9.4885 22.1387C9.50833 22.1387 9.56317 22.2448 9.63667 22.3673C9.9085 22.8212 10.143 23.1362 10.605 23.3648C11.0553 23.506 12.047 23.6087 12.432 22.8048C12.6665 22.3988 12.593 21.0793 12.593 19.642C12.593 17.3775 12.6035 15.1305 12.6035 12.8695H15.2262L15.2215 12.9348C15.2215 15.3498 15.2355 17.7473 15.2215 20.1437C15.2273 21.6323 15.3533 22.9623 14.7583 24.0473C14.3465 24.8873 13.559 25.4298 12.6455 25.6935C11.242 26.0085 9.9015 25.816 8.904 25.221C8.23433 24.8185 7.71517 24.1862 7.35933 23.4512L9.4885 22.1387Z" fill="currentColor"/>
</g>
<defs>
<clipPath id="clip0_6_230">
<rect width="28" height="28" fill="currentColor"/>
</clipPath>
</defs>
</svg>
