<svg width="28" height="28" viewBox="0 0 28 28" fill="none" xmlns="http://www.w3.org/2000/svg">
<path d="M17.6361 5.41425C16.3248 5.40278 15.0632 5.91049 14.1225 6.8254L14.1104 6.83735L13.7109 7.23687C13.3916 7.55611 13.3916 8.07371 13.7109 8.39296L14.2889 8.971C14.6082 9.29024 15.1258 9.29024 15.445 8.971L15.8379 8.57809C16.3167 8.11531 16.9544 7.86081 17.6146 7.86659C18.2774 7.87239 18.9132 8.14004 19.3845 8.61462C19.8561 9.08949 20.125 9.73362 20.1308 10.4088C20.1366 11.0806 19.8813 11.7264 19.4222 12.2088L16.8782 14.7686C16.6204 15.0283 16.3108 15.2285 15.9706 15.3564C15.6304 15.4841 15.2671 15.5367 14.9054 15.5106C14.5436 15.4845 14.1913 15.3803 13.8722 15.2048C13.792 15.1607 13.7141 15.1122 13.6393 15.0597C13.2696 14.8006 12.7622 14.7102 12.3997 14.9794L11.7435 15.4668C11.3811 15.736 11.3015 16.254 11.626 16.568C11.9435 16.8751 12.3011 17.1395 12.6901 17.3535C13.3185 17.6993 14.0139 17.9051 14.7289 17.9567C15.4441 18.0083 16.1617 17.9043 16.833 17.6522C17.5043 17.4 18.1132 17.0056 18.6187 16.4964L21.1702 13.9291L21.1854 13.9134C22.0935 12.9666 22.5945 11.7003 22.5832 10.3876C22.5719 9.07486 22.049 7.81741 21.1246 6.88656C20.2 5.95544 18.9474 5.42573 17.6361 5.41425Z" fill="currentColor"/>
<path d="M13.2715 10.0383C12.5563 9.98668 11.8387 10.0906 11.1674 10.3428C10.4964 10.5949 9.88712 10.9895 9.3817 11.4985L6.83019 14.0659L6.81497 14.0815C5.90689 15.0282 5.40585 16.2946 5.41718 17.6074C5.42851 18.9201 5.95134 20.1775 6.8757 21.1084C7.80035 22.0395 9.05297 22.5692 10.3642 22.5807C11.6755 22.5922 12.9372 22.0845 13.8779 21.1695L13.89 21.1576L14.2895 20.758C14.6088 20.4388 14.6088 19.9213 14.2895 19.6019L13.7114 19.0239C13.3922 18.7047 12.8747 18.7047 12.5554 19.0239L12.1624 19.4169C11.6837 19.8796 11.0459 20.1341 10.3857 20.1284C9.7229 20.1226 9.08716 19.8549 8.61588 19.3803C8.14433 18.9055 7.87535 18.2614 7.86952 17.5862C7.86372 16.9143 8.11901 16.2685 8.57812 15.7861L11.1222 13.2263C11.3799 12.9667 11.6896 12.7664 12.0298 12.6386C12.37 12.5108 12.7332 12.4583 13.0951 12.4843C13.4568 12.5104 13.8091 12.6146 14.1281 12.7901C14.2085 12.8343 14.2862 12.8828 14.3611 12.9353C14.7308 13.1944 15.2382 13.2847 15.6006 13.0155L16.2569 12.5281C16.6194 12.2589 16.699 11.7408 16.3744 11.427C16.0569 11.1199 15.6993 10.8554 15.3102 10.6414C14.6819 10.2957 13.9865 10.0898 13.2715 10.0383Z" fill="currentColor"/>
</svg>
