<svg width="100" height="100" viewBox="0 0 100 100" fill="none" xmlns="http://www.w3.org/2000/svg">
<g clip-path="url(#clip0_1642_29)">
<path d="M99.5333 16.9922C99.2625 16.7693 98.9167 16.6527 98.5646 16.6672C97.6 16.6672 96.3521 17.3214 95.6792 17.6735L95.4125 17.8089C94.2854 18.3547 93.0583 18.6631 91.8083 18.7152C90.5271 18.7568 89.4208 18.8318 87.9833 18.9818C79.4604 19.8589 75.6583 26.3901 71.9958 32.7089C70.0021 36.1464 67.9417 39.7151 65.1187 42.4422C64.5354 43.0089 63.9146 43.536 63.2604 44.0214C60.3396 46.1922 56.6708 47.7443 53.8167 48.8422C51.0687 49.8922 48.0687 50.836 45.1708 51.7506C42.5146 52.586 40.0083 53.3776 37.7042 54.2318C36.6646 54.6172 35.7812 54.9131 35 55.1735C32.9 55.8547 31.3854 56.3776 29.1729 57.9006C28.3104 58.4901 27.4438 59.1276 26.8583 59.6047C25.1021 61.0068 23.5479 62.6443 22.2396 64.4693C21.1146 66.1547 19.8146 67.7151 18.3604 69.1256C17.8937 69.5818 17.0646 69.8068 15.8229 69.8068C14.3729 69.811 10.3833 68.7506 7.70625 68.7506C4.13958 68.7506 0.433333 70.0568 0 70.8339C0 70.8339 6.06458 74.7797 6.27917 74.9922C6.04792 75.3339 2.49167 80.2068 2.10833 81.2651C7.30417 81.3964 10.35 80.6276 13.2667 79.2172C14.1125 78.8089 14.9708 78.3881 15.9937 77.9568C17.6979 77.2172 19.5333 76.0381 21.4792 74.7901C24.025 73.1297 26.6896 71.4256 29.2729 70.6026C31.3958 69.9547 33.6083 69.6443 35.8292 69.6818C38.5562 69.6818 41.4271 70.0464 44.1958 70.4006C46.2583 70.6672 49.9875 70.7089 52.0833 70.8339C52.6437 70.8672 55.9167 70.9047 58.2208 70.8901C55.7458 76.3381 52.0833 81.2506 52.0833 81.2506C52.0833 81.2506 64.5833 81.2506 69.8917 69.2068C69.9625 69.0672 70.0229 68.9235 70.0917 68.7839C73.3833 67.9985 81.8208 63.5485 84.0625 51.2735C85.1125 47.7068 85.8833 44.1651 86.5625 41.0464C87.3729 37.2964 88.0729 34.0818 88.8729 32.8339C90.1313 30.8777 92.05 29.5547 93.9083 28.2693C94.1604 28.0964 94.4167 27.9277 94.6646 27.7443C97 26.1047 99.3208 24.2131 99.8333 20.6839V20.6027C100.204 17.9714 99.8917 17.2985 99.5333 16.9922Z" fill="black"/>
</g>
<defs>
<clipPath id="clip0_1642_29">
<rect width="100" height="100" fill="currentColor"/>
</clipPath>
</defs>
</svg>
