<svg width="28" height="28" viewBox="0 0 28 28" fill="none" xmlns="http://www.w3.org/2000/svg">
<g clip-path="url(#clip0_3222_476)">
<path d="M28.1503 27.3148L27.5576 26.7501C27.2648 26.364 26.9533 26.0221 26.6138 25.7106L26.608 25.706C26.2595 25.3894 25.8975 25.0884 25.5218 24.803C25.2208 24.5961 24.807 24.3468 24.2805 24.0551C23.8476 23.8603 23.5093 23.5185 23.3261 23.0938L23.3215 23.0821L23.2655 23.0541C23.5128 23.0296 23.7391 22.9841 23.9561 22.92L23.9293 22.927L24.5943 22.7438C24.8696 22.6575 25.1881 22.6015 25.5183 22.5886H25.5253C25.873 22.5746 26.2008 22.5186 26.5135 22.4265L26.4843 22.4335C26.6352 22.3961 26.7903 22.3537 26.9498 22.3063C27.1092 22.2588 27.2457 22.2165 27.3593 22.1791V21.982C27.2465 21.8132 27.11 21.6203 26.9498 21.4033C26.797 21.1956 26.6255 21.0148 26.433 20.8573L26.4271 20.8526C25.9379 20.4202 25.4312 20.0017 24.907 19.5973C24.445 19.2368 23.9211 18.8693 23.3775 18.5286L23.2981 18.482C23.0111 18.293 22.6821 18.118 22.3356 17.9745L22.296 17.9605C21.9475 17.8189 21.6041 17.6637 21.2658 17.495C21.1526 17.439 21.0208 17.39 20.8843 17.3561L20.8715 17.3538C20.735 17.3258 20.6183 17.2558 20.5331 17.1566L20.532 17.1555C20.371 16.9431 20.2298 16.7016 20.1178 16.445L20.1085 16.4216C19.9957 16.158 19.8736 15.9048 19.7421 15.6621C19.4598 15.1161 19.1868 14.5612 18.9231 13.9973C18.6595 13.4334 18.4063 12.8687 18.1636 12.3033C17.9948 11.9268 17.8397 11.5508 17.6981 11.1751C17.5418 10.7621 17.3656 10.4086 17.1603 10.0761L17.1755 10.103C16.6715 9.24429 16.1686 8.51162 15.6226 7.81512L15.6553 7.85945C15.1151 7.17812 14.5551 6.56912 13.9531 6.00445L13.9438 5.99629C13.35 5.43862 12.7106 4.90662 12.0398 4.41429L11.9826 4.37345C11.2857 3.86712 10.5235 3.36856 9.69595 2.87779C9.36345 2.68179 8.97728 2.52195 8.57012 2.41929L8.53978 2.41229L7.24128 2.08795L6.50745 2.03195C6.26323 2.01329 6.01862 2.00395 5.77362 2.00395C5.60095 1.91295 5.45278 1.80445 5.32212 1.67845C5.19378 1.55595 5.05495 1.44045 4.91028 1.33429L4.89862 1.32612C4.19278 0.914286 3.37262 0.537453 2.51512 0.24112L2.41595 0.210786C2.19078 0.0789531 1.92012 0.00195312 1.63195 0.00195312C1.42662 0.00195312 1.22945 0.0416198 1.04978 0.112786L1.06028 0.109286C0.616951 0.285453 0.278617 0.64362 0.132784 1.08929L0.129284 1.10095C0.0441172 1.30162 -0.00488281 1.53379 -0.00488281 1.77879C-0.00488281 2.20812 0.146784 2.60129 0.399951 2.90812L0.397617 2.90462C0.820728 3.46851 1.14506 3.91184 1.37062 4.23462C1.53939 4.46095 1.71362 4.69623 1.89328 4.94045C2.05778 5.15979 2.20362 5.41062 2.32145 5.67545L2.33078 5.69995C2.39612 5.83879 2.45328 6.00445 2.49528 6.17479L2.49878 6.19345C2.53612 6.35368 2.58317 6.5279 2.63995 6.71612C2.80873 7.14856 2.96856 7.5919 3.11945 8.04612C3.28395 8.54195 3.46595 8.96195 3.67712 9.36212L3.65495 9.31545C3.76773 9.52234 3.8809 9.72456 3.99445 9.92212C4.10801 10.1197 4.23012 10.3126 4.36078 10.5008C4.43662 10.6151 4.53228 10.7096 4.64195 10.7831L4.64545 10.7855C4.76095 10.8695 4.83678 11.0013 4.84262 11.1506C4.70962 11.3466 4.61978 11.5823 4.58945 11.8355L4.58828 11.8425C4.54745 12.1376 4.48912 12.4001 4.40978 12.6533L4.41912 12.6183C4.15895 13.3953 4.00962 14.2913 4.00962 15.2211C4.00962 15.5221 4.02478 15.8185 4.05628 16.1113L4.05278 16.0751C4.12278 17.1928 4.45995 18.2195 5.00012 19.1085L4.98378 19.0793C5.21362 19.4235 5.45978 19.7233 5.73162 19.9975C5.92762 20.2168 6.21228 20.3545 6.52962 20.3545C6.70695 20.3545 6.87495 20.3113 7.02195 20.2343L7.01612 20.2366C7.42445 20.0896 7.71495 19.7163 7.73595 19.2718V19.2695C7.79195 18.7165 7.87595 18.2218 7.99145 17.7388L7.97628 17.817C8.00428 17.7435 8.02062 17.6595 8.02062 17.5708C8.02062 17.5533 8.01945 17.5358 8.01828 17.5183V17.5206C8.00895 17.4358 8.06067 17.3557 8.17345 17.2803V17.3363C8.28623 17.6 8.40367 17.8632 8.52578 18.1261C8.6479 18.389 8.77467 18.6523 8.90612 18.916C9.25028 19.4398 9.61545 19.8971 10.0168 20.3183L10.0133 20.3148C10.4158 20.7488 10.8545 21.1385 11.3281 21.4826L11.3538 21.5001C11.6011 21.6891 11.8181 21.8933 12.0141 22.1161L12.0188 22.1208C12.2031 22.3378 12.4236 22.5163 12.6721 22.6505L12.6838 22.6563V22.6283H12.7398C12.6943 22.5268 12.6208 22.4451 12.5298 22.3891L12.5275 22.388C12.4353 22.3366 12.356 22.2853 12.2813 22.2293L12.2871 22.2328C12.1183 22.064 11.9441 21.8758 11.7645 21.6681C11.5848 21.4605 11.4203 21.2629 11.271 21.0755C10.8758 20.5295 10.499 19.959 10.1405 19.364C9.7819 18.769 9.44317 18.1642 9.12428 17.5498C8.9734 17.2488 8.82756 16.9385 8.68678 16.6188C8.54601 16.2991 8.40951 15.9888 8.27728 15.6878C8.22012 15.5723 8.18045 15.4393 8.16528 15.2981V15.2923C8.15828 15.1581 8.08128 15.0426 7.96928 14.9831L7.96695 14.982C7.82578 15.2223 7.66945 15.43 7.49095 15.6178L7.49212 15.6166C7.30662 15.8115 7.15495 16.0413 7.04645 16.2933L7.04062 16.3085C6.87612 16.7075 6.75595 17.1706 6.70345 17.6548L6.70112 17.677C6.64512 18.1755 6.58873 18.6881 6.53195 19.2146L6.47595 19.2426L6.44795 19.2706C6.14462 19.2088 5.89495 19.0151 5.75962 18.7538L5.75728 18.748C5.61573 18.475 5.48895 18.2066 5.37695 17.943C5.08762 17.1998 4.90795 16.34 4.88345 15.4416V15.4311C4.87295 15.2888 4.86828 15.122 4.86828 14.9551C4.86828 14.1781 4.99078 13.4291 5.21712 12.7268L5.20312 12.7781C5.25912 12.5712 5.38123 12.2228 5.56945 11.7328C5.75767 11.2428 5.7954 10.9041 5.68262 10.7166C5.62428 10.5241 5.51578 10.362 5.37345 10.2383L5.37228 10.2371C5.22995 10.1135 5.10045 9.98395 4.98145 9.84629L4.97795 9.84162C4.84651 9.65184 4.71973 9.44962 4.59762 9.23495C4.47551 9.02029 4.3674 8.80873 4.27328 8.60029C4.08078 8.15462 3.88362 7.59579 3.72028 7.02179L3.69462 6.91795C3.50912 6.25879 3.30262 5.70112 3.05762 5.16445L3.08795 5.23912C2.95845 4.94512 2.80795 4.69079 2.63295 4.45862L2.63995 4.46795C2.45017 4.2144 2.28062 3.97445 2.13128 3.74812C1.94151 3.5039 1.75328 3.26862 1.56662 3.04229C1.37645 2.81245 1.20728 2.55345 1.06962 2.27579L1.05912 2.25245C1.00312 2.13929 0.954117 2.00745 0.920284 1.87095L0.917951 1.85812C0.905117 1.81729 0.898117 1.76945 0.898117 1.72162C0.898117 1.62595 0.926117 1.53612 0.975117 1.46145L0.973951 1.46379C0.986784 1.39845 1.01712 1.34129 1.05912 1.29462C1.10462 1.25379 1.16295 1.22345 1.22595 1.21062H1.22828C1.32745 1.14645 1.44762 1.10795 1.57828 1.10795C1.67628 1.10795 1.77078 1.13012 1.85362 1.16979L1.85012 1.16862C2.10562 1.24095 2.31212 1.31329 2.51395 1.39612L2.47195 1.38095C2.82895 1.53184 3.15834 1.67768 3.46012 1.81845C3.80778 1.98412 4.10412 2.15912 4.38412 2.35395L4.36312 2.33995C4.51401 2.43406 4.66451 2.53751 4.81462 2.65029C4.96473 2.76306 5.12456 2.87623 5.29412 2.98979H5.68962C5.99062 2.98979 6.31028 3.00418 6.64862 3.03295C6.99045 3.05979 7.30662 3.12395 7.60762 3.22429L7.57962 3.21612C8.14078 3.38295 8.62262 3.58012 9.07995 3.81695L9.03212 3.79479C9.49334 4.02968 9.93084 4.27895 10.3446 4.54262C11.0318 4.97079 11.6256 5.40945 12.1845 5.88895L12.1646 5.87262C12.748 6.37195 13.2776 6.88412 13.7746 7.42545L13.7863 7.43945C14.2716 7.96912 14.7348 8.54429 15.1583 9.14745L15.1945 9.20229C15.5841 9.75295 15.9773 10.39 16.3308 11.0503L16.3798 11.1495C16.4743 11.3291 16.57 11.5496 16.6528 11.7748L16.6656 11.8133C16.7411 12.0295 16.8255 12.2512 16.9188 12.4783C17.1257 12.9488 17.3473 13.4237 17.5838 13.9028C17.8202 14.3819 18.0419 14.8478 18.2488 15.3005L18.8695 16.655C19.0876 17.1286 19.3315 17.537 19.615 17.9138L19.6021 17.8963C19.839 18.1495 20.1551 18.3268 20.5098 18.3886L20.5191 18.3898C20.9485 18.4971 21.3101 18.6185 21.6601 18.762L21.6053 18.7421C21.7721 18.818 21.9868 18.8985 22.2073 18.9696L22.254 18.9825C22.5013 19.0583 22.716 19.1586 22.9131 19.2846L22.9026 19.2788C23.2841 19.4923 23.6073 19.7023 23.9153 19.931L23.8908 19.9135C24.2105 20.1483 24.5301 20.37 24.8498 20.5785C25.0007 20.6912 25.2538 20.8557 25.6093 21.072C25.9647 21.2882 26.153 21.4904 26.174 21.6786C26.041 21.674 25.8835 21.6705 25.726 21.6705C25.152 21.6705 24.5873 21.7078 24.0343 21.7801L24.0996 21.7731C23.4743 21.8571 22.9073 22.01 22.3741 22.2281L22.4208 22.2118C22.289 22.269 22.1315 22.3215 21.9681 22.3623L21.946 22.367C21.7803 22.3915 21.652 22.5245 21.6356 22.6901C21.7068 22.7788 21.764 22.8826 21.8025 22.9946L21.8048 23.0016C21.8445 23.1206 21.8923 23.2233 21.9506 23.319L21.9471 23.312C22.086 23.5581 22.2353 23.7705 22.4033 23.9665L22.3986 23.9606C22.5631 24.1636 22.7486 24.3398 22.954 24.4903L22.9621 24.4961C23.1519 24.647 23.3495 24.8022 23.5548 24.9616C23.7426 25.1086 23.955 25.2533 24.1755 25.384L24.2035 25.3991C24.5348 25.6021 24.9198 25.7958 25.3211 25.958L25.3748 25.9766C25.8111 26.1516 26.1856 26.3546 26.5333 26.5961L26.5146 26.5833C26.741 26.7147 26.9665 26.8606 27.1913 27.0208C27.4161 27.181 27.6323 27.3362 27.84 27.4863C27.9251 27.5703 27.9998 27.6636 28.0628 27.7651L28.0663 27.771C28.1725 27.8923 28.3195 27.9751 28.4863 27.9961H28.4898V27.9401C28.3871 27.862 28.3113 27.7535 28.2751 27.6286L28.274 27.624C28.2448 27.505 28.2016 27.4011 28.1433 27.3055L28.1456 27.3101L28.1503 27.3148ZM6.47828 4.90895C6.3274 4.90895 6.18623 4.91362 6.05478 4.92295C5.92062 4.93229 5.79578 4.95679 5.67795 4.99645L5.68845 4.99295V5.02095H5.74445C5.8199 5.13373 5.91478 5.26051 6.02912 5.40129C6.14345 5.54206 6.2469 5.67856 6.33945 5.81079L6.79095 6.74179L6.84695 6.71379C6.97878 6.61812 7.08028 6.48979 7.14095 6.33929L7.14328 6.33345C7.20395 6.17129 7.23895 5.98229 7.23895 5.78629C7.23895 5.76529 7.23895 5.74429 7.23778 5.72329V5.72679C7.18528 5.67545 7.14212 5.61479 7.11178 5.54712L7.11062 5.54362L7.01612 5.33129C6.95428 5.23329 6.86795 5.15629 6.76645 5.10729L6.76295 5.10612C6.65328 5.05362 6.55995 4.98712 6.47828 4.90895Z" fill="currentColor"/>
</g>
<defs>
<clipPath id="clip0_3222_476">
<rect width="28" height="28" fill="currentColor"/>
</clipPath>
</defs>
</svg>
