<svg width="28" height="28" viewBox="0 0 28 28" fill="none" xmlns="http://www.w3.org/2000/svg">
<g clip-path="url(#clip0_3282_439)">
<path d="M16.4862 0.0546875C16.2844 0.0546875 16.0965 0.0978542 15.9227 0.156188C16.2914 0.401187 16.4944 0.727854 16.5947 1.09652C16.6029 1.14669 16.6169 1.18285 16.6239 1.23302C16.6325 1.27608 16.6376 1.31979 16.639 1.36369C16.667 1.99952 16.4722 2.08002 16.3357 2.45569C16.1257 2.93985 16.184 3.46019 16.436 3.87902C16.4591 3.93519 16.4881 3.98876 16.5224 4.03885C16.2482 2.20952 17.7742 1.93535 18.0554 1.36369C18.0775 0.864354 17.6657 0.531854 17.3402 0.300854C17.0844 0.140121 16.7883 0.0551725 16.4862 0.0558542V0.0546875ZM18.7857 0.466521C18.7577 0.633354 18.7787 0.590187 18.7717 0.676521C18.7647 0.734854 18.7647 0.807187 18.7577 0.864354C18.7425 0.922687 18.7285 0.981021 18.7064 1.03819C18.6924 1.09652 18.6714 1.15485 18.648 1.21202L18.5699 1.37769C18.5465 1.40685 18.5337 1.43602 18.5115 1.46519L18.4684 1.52935C18.434 1.57886 18.3978 1.62712 18.3599 1.67402C18.3167 1.71835 18.2805 1.76852 18.2292 1.80469V1.81169C18.186 1.84785 18.1429 1.89102 18.0915 1.92835C17.9399 2.04385 17.7672 2.13019 17.6074 2.23869C17.5572 2.27369 17.5059 2.30402 17.4627 2.34719C17.4136 2.38171 17.3676 2.42035 17.325 2.46269C17.2749 2.50585 17.2387 2.54902 17.1955 2.60035C17.1594 2.64352 17.1162 2.69369 17.087 2.74502C17.0507 2.79387 17.0169 2.84449 16.9855 2.89669C16.9564 2.95502 16.9354 3.00519 16.9062 3.06235C16.884 3.12069 16.863 3.17085 16.8479 3.22919C16.8287 3.28877 16.812 3.3491 16.7977 3.41002C16.7907 3.43919 16.7907 3.47535 16.7837 3.50335C16.7755 3.53252 16.7755 3.56169 16.7685 3.59085C16.7685 3.64919 16.7615 3.71335 16.7615 3.77169C16.7615 3.81485 16.7615 3.85802 16.7685 3.90119C16.7685 3.95952 16.7755 4.01785 16.7907 4.08202C16.7977 4.14035 16.8117 4.19869 16.8257 4.25702C16.849 4.31419 16.863 4.37135 16.884 4.42969C16.8992 4.46469 16.9202 4.50202 16.9354 4.53119L15.2717 3.88719C14.9905 3.80785 14.7152 3.73552 14.4329 3.67019L13.9779 3.56169C13.5439 3.47535 13.1029 3.41002 12.6619 3.36685C12.6467 3.36685 12.6397 3.35985 12.6257 3.35985C11.8805 3.28521 11.1303 3.27545 10.3834 3.33069C9.94238 3.35985 9.50138 3.41702 9.06038 3.48935C8.73265 3.54582 8.40696 3.61353 8.08388 3.69235L7.75838 3.77869C7.65104 3.82185 7.54838 3.87202 7.44804 3.91635L7.20888 4.02485C7.19488 4.03185 7.18088 4.03185 7.17388 4.03885C7.10038 4.07502 7.03621 4.10419 6.97088 4.14035C6.87694 4.18179 6.78506 4.22773 6.69554 4.27802C6.64538 4.29902 6.59521 4.32819 6.55088 4.35035C6.53016 4.36321 6.50874 4.3749 6.48671 4.38535C6.42138 4.42269 6.35604 4.45885 6.29771 4.49502C6.23817 4.52793 6.18053 4.56416 6.12504 4.60352C6.07371 4.63852 6.02354 4.66769 5.98038 4.70385C5.97338 4.71202 5.96521 4.71202 5.95821 4.71902C5.91504 4.74819 5.86488 4.78435 5.82054 4.82052L5.80654 4.83452L5.69804 4.92085C5.68404 4.92902 5.66888 4.94302 5.65488 4.95002C5.61871 4.97919 5.58254 5.01535 5.54638 5.04335C5.53938 5.05852 5.52421 5.06669 5.51721 5.07252C5.47404 5.11685 5.43088 5.15302 5.38771 5.19619C5.37954 5.19619 5.37954 5.20319 5.37254 5.21019C5.32758 5.24949 5.28437 5.29075 5.24304 5.33385C5.23488 5.34085 5.23488 5.34785 5.22788 5.34785C5.1899 5.38502 5.1537 5.42395 5.11938 5.46452C5.10538 5.47852 5.08438 5.49252 5.06921 5.50652C5.03047 5.55236 4.98918 5.59598 4.94554 5.63719C4.93854 5.65119 4.92454 5.65935 4.91754 5.67219C4.85921 5.73052 4.80904 5.78885 4.75071 5.84719L4.72971 5.86819C4.61304 5.99185 4.49054 6.11435 4.35988 6.22285C4.23038 6.33952 4.09271 6.44685 3.95504 6.54135C3.67863 6.73879 3.38032 6.90361 3.06604 7.03252C2.91438 7.09785 2.75454 7.15619 2.59588 7.20635C2.29254 7.27169 1.98104 7.39419 1.71388 7.41635C1.65554 7.41635 1.59138 7.43035 1.53304 7.43735L1.35221 7.48052L1.17838 7.54585C1.12004 7.56802 1.06288 7.59719 1.00571 7.62519C0.954377 7.66135 0.89721 7.69052 0.845877 7.72669C0.794402 7.76395 0.746023 7.8053 0.70121 7.85035C0.651044 7.88535 0.59971 7.93669 0.556544 7.97985C0.513377 8.03002 0.47021 8.07319 0.434044 8.12452C0.397877 8.18285 0.35471 8.23302 0.325544 8.29135C0.287543 8.34391 0.253611 8.3993 0.224044 8.45702C0.194877 8.52235 0.16571 8.58069 0.14471 8.64485C0.122544 8.70319 0.101544 8.76852 0.079377 8.83269C0.065377 8.89102 0.0502103 8.94935 0.044377 9.00769C0.044377 9.01352 0.0362103 9.02169 0.0362103 9.02869C0.0222103 9.09402 0.0222103 9.18035 0.0140436 9.22352C0.00704363 9.27485 4.36266e-05 9.31685 4.36266e-05 9.36819C-0.00129864 9.494 0.0283515 9.61821 0.086377 9.72985V9.73685C0.108544 9.78002 0.13771 9.82435 0.166877 9.86752C0.194877 9.91069 0.22521 9.95385 0.26021 9.99702C0.296377 10.0332 0.339544 10.0775 0.383877 10.1137C0.426033 10.156 0.471696 10.1946 0.520377 10.2292C0.69421 10.3809 0.737377 10.431 0.961377 10.5465C0.997544 10.5687 1.03371 10.5827 1.07804 10.6049C1.08504 10.6049 1.09204 10.6119 1.09904 10.6119C1.09904 10.627 1.09904 10.634 1.10604 10.648C1.12293 10.7673 1.15427 10.884 1.19938 10.9957C1.22271 11.0389 1.23671 11.082 1.25771 11.1252C1.26588 11.1404 1.27288 11.1544 1.28104 11.1614C1.30904 11.2197 1.33821 11.2699 1.36621 11.3212L1.47471 11.4729C1.51088 11.516 1.55521 11.5662 1.59838 11.6105C1.64154 11.6537 1.68471 11.6899 1.73604 11.733C1.73604 11.733 1.74304 11.74 1.75004 11.74C1.79321 11.7762 1.83638 11.8124 1.88071 11.8415C1.93102 11.8768 1.98408 11.908 2.03938 11.9349C2.08954 11.964 2.14788 11.9932 2.20504 12.0154C2.25166 12.0364 2.30008 12.0532 2.34971 12.0655C2.35788 12.0725 2.36488 12.0725 2.37888 12.0795C2.40804 12.0877 2.44421 12.0947 2.47221 12.1017C2.45121 12.4925 2.44421 12.86 2.50254 12.9907C2.56671 13.1354 2.88521 12.6944 3.20254 12.188C3.16054 12.6874 3.13138 13.273 3.20254 13.4469C3.28304 13.6277 3.71588 13.063 4.09271 12.4412C9.22021 11.2559 13.8985 14.7979 14.3897 19.8029C14.2964 19.0212 13.3339 18.5884 12.8929 18.6969C12.6759 19.2312 12.3072 19.9184 11.7145 20.3454C11.7647 19.867 11.7437 19.377 11.6422 18.8987C11.4803 19.5645 11.174 20.1866 10.745 20.721C10.059 20.7712 9.37188 20.4387 9.01021 19.9394C8.98104 19.9184 8.97404 19.8752 8.95188 19.846C8.93088 19.7959 8.90871 19.7445 8.89354 19.6944C8.87255 19.6459 8.85804 19.5949 8.85038 19.5427C8.84338 19.4914 8.84338 19.4412 8.84338 19.3829V19.2744C8.85201 19.223 8.86409 19.1724 8.87954 19.1227C8.89471 19.0725 8.90871 19.0224 8.93088 18.971C8.95888 18.9209 8.98104 18.8695 9.01721 18.8194C9.13971 18.4717 9.13971 18.1894 8.91571 18.0237C8.87221 17.9953 8.82611 17.9711 8.77804 17.9514C8.75004 17.9444 8.71388 17.9304 8.68471 17.9222L8.62638 17.9012C8.57685 17.8852 8.52614 17.8731 8.47471 17.865C8.42543 17.8506 8.37438 17.8431 8.32304 17.8429C8.27053 17.8346 8.21752 17.8299 8.16438 17.8289C8.12821 17.8289 8.09204 17.8359 8.05588 17.8359C8.00181 17.8356 7.94799 17.843 7.89604 17.858C7.84588 17.865 7.79571 17.872 7.74438 17.886C7.69277 17.8999 7.64211 17.917 7.59271 17.9374C7.54254 17.9584 7.49938 17.9805 7.44804 18.0027C7.40488 18.0237 7.36171 18.0529 7.31038 18.075C5.62571 19.174 6.63138 21.7477 7.78054 22.4932C7.34654 22.5725 6.90554 22.6659 6.78304 22.7604L6.76788 22.7744C7.07938 22.9622 7.40488 23.122 7.74438 23.2597C8.20754 23.4114 8.69871 23.5479 8.91571 23.6062V23.6132C9.51483 23.7362 10.1275 23.7801 10.738 23.7439C13.9417 23.5199 16.5667 21.0827 17.0439 17.872L17.087 18.0599C17.1092 18.1905 17.1372 18.3282 17.1524 18.4647V18.4717C17.1664 18.537 17.1734 18.6024 17.1815 18.6607V18.6887C17.1885 18.754 17.1955 18.8194 17.1955 18.8777C17.2025 18.957 17.2095 19.0364 17.2095 19.1157V19.2324C17.2095 19.2674 17.2177 19.3105 17.2177 19.3467C17.2177 19.391 17.2095 19.4342 17.2095 19.4774V19.5789C17.2095 19.629 17.2025 19.6722 17.2025 19.7235C17.2025 19.7527 17.2025 19.7819 17.1955 19.8169C17.1955 19.8682 17.1885 19.9184 17.1885 19.9767C17.1815 19.9977 17.1815 20.0199 17.1815 20.0409L17.1582 20.2077C17.1582 20.2299 17.1582 20.2509 17.1524 20.273C17.1442 20.3454 17.1302 20.4107 17.1232 20.483V20.497L17.08 20.7V20.721L17.0369 20.9159C17.0369 20.924 17.0287 20.9392 17.0287 20.945C17.0154 21.0112 16.9987 21.0766 16.9785 21.141V21.162C16.9564 21.2344 16.9354 21.2997 16.9202 21.365C16.9132 21.372 16.9132 21.379 16.9132 21.379L16.8479 21.596C16.8199 21.6684 16.7977 21.7337 16.7685 21.806C16.7394 21.8784 16.7184 21.9507 16.6892 22.016C16.66 22.0884 16.6309 22.1525 16.6029 22.226H16.5947C16.5667 22.2902 16.5364 22.3625 16.5014 22.4279C16.4953 22.4451 16.4879 22.4619 16.4792 22.478C16.4722 22.485 16.4722 22.4932 16.4652 22.5002C15.987 23.4576 15.2909 24.2895 14.4329 24.9292C14.3745 24.9654 14.3174 25.0097 14.259 25.0529C14.245 25.0669 14.224 25.0739 14.2089 25.0879C14.1572 25.1261 14.1042 25.1627 14.0502 25.1975L14.0712 25.2407H14.0794L14.3827 25.1975H14.3897C14.5775 25.1684 14.7654 25.1322 14.9532 25.096C15.0045 25.089 15.0617 25.0739 15.113 25.0599L15.2145 25.0377C15.2647 25.0307 15.3149 25.0167 15.3662 25.0097C15.4094 24.9945 15.4525 24.9864 15.4957 24.9735C16.219 24.7985 16.9202 24.5605 17.5934 24.2794C16.4312 25.8623 14.8855 27.1237 13.1017 27.945C13.9347 27.8867 14.7654 27.7502 15.568 27.518C18.4733 26.6638 20.927 24.7032 22.4012 22.058C22.1035 23.7325 21.4394 25.3205 20.4564 26.7084C21.1572 26.2461 21.8048 25.7077 22.3872 25.103C24.0058 23.4132 25.0684 21.2685 25.4322 18.957C25.6772 20.1004 25.7495 21.2787 25.6422 22.4419C30.8619 15.1607 26.075 7.61119 24.0719 5.62319C24.0649 5.60802 24.0579 5.60102 24.0579 5.58702C24.0509 5.59402 24.0509 5.59402 24.0509 5.60102C24.0509 5.59402 24.0509 5.59402 24.0427 5.58702C24.0427 5.67335 24.0357 5.75969 24.0287 5.84719C24.0087 6.00916 23.9845 6.1706 23.9564 6.33135C23.9214 6.49002 23.877 6.64985 23.8339 6.80969C23.7825 6.96135 23.7254 7.12002 23.6589 7.27169C23.5928 7.42148 23.5208 7.56859 23.443 7.71269C23.2816 7.99615 23.0954 8.26475 22.8865 8.51535C22.778 8.64485 22.6625 8.76035 22.5459 8.87702C22.4777 8.93937 22.4077 8.99967 22.3359 9.05785L22.1702 9.20252C22.0411 9.3044 21.9059 9.3983 21.7654 9.48369C21.6272 9.5727 21.4847 9.65485 21.3384 9.72985C21.1867 9.80219 21.035 9.86752 20.8834 9.93285C20.5745 10.0503 20.2548 10.1375 19.929 10.193C19.7622 10.2222 19.5965 10.2362 19.4367 10.2514C19.3214 10.2595 19.2058 10.2642 19.0902 10.2654C18.9257 10.2631 18.7615 10.2534 18.5979 10.2362C18.4327 10.2232 18.2686 10.1991 18.1067 10.1639C17.9427 10.1341 17.781 10.0932 17.6225 10.0414H17.6144C17.7742 10.0262 17.9329 10.0122 18.0927 9.98302C18.4183 9.92657 18.7378 9.83946 19.047 9.72285C19.2057 9.66452 19.3574 9.59219 19.502 9.51985C19.6537 9.44752 19.7914 9.36819 19.936 9.28185C20.0737 9.18852 20.2102 9.09402 20.3409 8.99252C20.4715 8.89102 20.594 8.78252 20.7095 8.66702C20.832 8.55852 20.9405 8.43602 21.049 8.31235C21.1575 8.18285 21.259 8.05219 21.3524 7.92269C21.3675 7.90052 21.3827 7.87135 21.3967 7.85035C21.469 7.73369 21.5414 7.61819 21.6067 7.50269C21.7661 7.2149 21.8966 6.91203 21.9964 6.59852C22.0477 6.44685 22.0839 6.28819 22.12 6.12835C22.1492 5.96269 22.1784 5.80402 22.1924 5.64419C22.2064 5.47852 22.2215 5.31169 22.2215 5.15302C22.2215 5.03635 22.2134 4.92085 22.2064 4.80535C22.192 4.6434 22.1725 4.48193 22.148 4.32119C22.1199 4.1582 22.0841 3.99663 22.0407 3.83702C21.9894 3.68535 21.9392 3.52552 21.8809 3.37385C21.8225 3.22219 21.7514 3.07052 21.679 2.92585C21.5985 2.78119 21.5192 2.63652 21.4329 2.49885C21.3405 2.3637 21.244 2.23141 21.1435 2.10219C21.035 1.97852 20.9265 1.85485 20.811 1.73235C20.7502 1.67028 20.6875 1.60998 20.6232 1.55152C20.2965 1.29835 19.9582 1.06035 19.6175 0.843354C19.5708 0.816366 19.5225 0.792211 19.4729 0.771021C19.2584 0.639693 19.0273 0.536509 18.7857 0.466521Z" fill="currentColor"/>
</g>
<defs>
<clipPath id="clip0_3282_439">
<rect width="28" height="28" fill="white"/>
</clipPath>
</defs>
</svg>
