<svg width="100" height="100" viewBox="0 0 100 100" fill="none" xmlns="http://www.w3.org/2000/svg">
<path d="M50.0002 91.1117C72.706 91.1117 91.1127 72.705 91.1127 49.9992C91.1127 27.2934 72.706 8.88672 50.0002 8.88672C27.2944 8.88672 8.8877 27.2934 8.8877 49.9992C8.8877 72.705 27.2944 91.1117 50.0002 91.1117Z" fill="url(#paint0_linear_1642_32)"/>
<path d="M39.6143 33.3887H33.3164V66.7137H39.6143V33.3887Z" fill="currentColor"/>
<path d="M66.6413 33.2441H60.4893V63.64H66.6413V33.2441Z" fill="url(#paint1_linear_1642_32)"/>
<path d="M76.6268 79.3616L71.1831 81.4366L33.3164 33.3887H40.6414L76.6268 79.3616Z" fill="url(#paint2_linear_1642_32)"/>
<defs>
<linearGradient id="paint0_linear_1642_32" x1="50.0002" y1="91.1117" x2="50.0002" y2="8.88672" gradientUnits="userSpaceOnUse">
<stop/>
<stop offset="0.465"/>
<stop offset="1"/>
</linearGradient>
<linearGradient id="paint1_linear_1642_32" x1="63.5663" y1="68.7941" x2="63.5663" y2="38.3983" gradientUnits="userSpaceOnUse">
<stop offset="0.377" stop-color="white" stop-opacity="0"/>
<stop offset="0.666" stop-color="white" stop-opacity="0.3"/>
<stop offset="0.988" stop-color="white"/>
</linearGradient>
<linearGradient id="paint2_linear_1642_32" x1="46.0456" y1="44.672" x2="76.3768" y2="84.4345" gradientUnits="userSpaceOnUse">
<stop offset="0.296" stop-color="white"/>
<stop offset="0.521" stop-color="white" stop-opacity="0.5"/>
<stop offset="0.838" stop-color="white" stop-opacity="0"/>
</linearGradient>
</defs>
</svg>
