<svg width="100" height="100" viewBox="0 0 100 100" fill="none" xmlns="http://www.w3.org/2000/svg">
<path d="M50.0149 94.6238C48.8191 94.6238 47.6337 94.3113 46.5857 93.7072L35.6691 87.2426C34.0378 86.3301 34.8337 86.0072 35.3712 85.8217C37.5462 85.0613 37.9857 84.8884 40.3066 83.5697C40.5503 83.4301 40.8691 83.4801 41.1191 83.628L49.5066 88.6051C49.8087 88.7697 50.2399 88.7697 50.5191 88.6051L83.2212 69.728C83.5232 69.5551 83.7212 69.2051 83.7212 68.8447V31.1092C83.7212 30.7322 83.5253 30.3967 83.2149 30.2092L50.5274 11.3467C50.2253 11.1676 49.8232 11.1676 49.5212 11.3467L16.8378 30.2072C16.5212 30.3863 16.3191 30.7384 16.3191 31.0988V68.8363C16.3191 69.1967 16.5149 69.5405 16.8274 69.7113L25.7837 74.8842C30.6462 77.3155 33.617 74.4509 33.617 71.5697V34.3259C33.617 33.7947 34.0337 33.3842 34.567 33.3842H38.7087C39.2253 33.3842 39.6503 33.7926 39.6503 34.3259V71.5884C39.6503 78.0717 36.1149 81.7967 29.967 81.7967C28.0753 81.7967 26.5857 81.7967 22.4274 79.7509L13.8482 74.8072C11.7274 73.578 10.417 71.2842 10.417 68.8384V31.1009C10.417 28.6447 11.7274 26.353 13.8462 25.1405L46.5837 6.25508C48.6545 5.08424 51.4045 5.08424 53.4607 6.25508L86.1566 25.1488C88.2649 26.3676 89.5837 28.653 89.5837 31.1092V68.8467C89.5837 71.2947 88.2649 73.578 86.1545 74.8072L53.4587 93.6905C52.4107 94.2967 51.2232 94.6072 50.0128 94.6072" fill="currentColor"/>
<path d="M60.1169 68.619C45.8086 68.619 42.8086 62.0503 42.8086 56.5419C42.8086 56.019 43.2315 55.6003 43.7565 55.6003H47.9815C48.4482 55.6003 48.8419 55.9398 48.9148 56.4003C49.5523 60.7044 51.4523 62.8753 60.1044 62.8753C66.9961 62.8753 69.9273 61.319 69.9273 57.6628C69.9273 55.5586 69.0919 53.9961 58.3857 52.9482C49.4294 52.0648 43.8961 50.0919 43.8961 42.9294C43.8961 36.3315 49.4628 32.4023 58.7857 32.4023C69.2565 32.4023 74.4461 36.0378 75.1003 43.8461C75.1253 44.1169 75.0273 44.3773 74.8461 44.5753C74.6669 44.7628 74.4128 44.8773 74.1503 44.8773H69.9023C69.4607 44.8773 69.0753 44.5669 68.9857 44.1398C67.9628 39.6128 65.4898 38.1648 58.769 38.1648C51.2461 38.1648 50.3711 40.7836 50.3711 42.7482C50.3711 45.1294 51.4023 45.8253 61.5523 47.169C71.6044 48.5023 76.3773 50.3857 76.3773 57.4503C76.3773 64.5711 70.4336 68.6565 60.0711 68.6565" fill="currentColor"/>
</svg>
