<svg width="24" height="24" viewBox="0 0 24 24" fill="none" xmlns="http://www.w3.org/2000/svg">
<g clip-path="url(#clip0_3343_527)">
<path d="M16.2742 2C15.4961 2.00687 14.7248 2.1175 13.9761 2.335L13.9242 2.35188C13.4548 2.27 12.9767 2.225 12.5017 2.215C11.5186 2.19813 10.6748 2.43562 9.9948 2.83312C9.32418 2.6025 7.93418 2.19813 6.46918 2.28C5.45105 2.335 4.3373 2.64438 3.5098 3.51688C2.6898 4.38625 2.25418 5.73375 2.3448 7.57C2.37043 8.07437 2.51418 8.8975 2.7548 9.96812C2.9923 11.0362 3.32793 12.2862 3.74793 13.4287C4.16793 14.5681 4.62605 15.5931 5.34293 16.2894C5.70043 16.6375 6.19543 16.9344 6.77793 16.9088C7.18543 16.8919 7.55293 16.7131 7.8723 16.4494C8.02793 16.6544 8.1948 16.7419 8.34418 16.8238C8.53668 16.9281 8.71855 16.9994 8.91105 17.0456C9.25605 17.1331 9.84543 17.2475 10.5354 17.13C10.7698 17.0906 11.0173 17.0131 11.2648 16.9056C11.2748 17.1788 11.2848 17.4488 11.2942 17.7225C11.3298 18.585 11.3536 19.3825 11.6098 20.0825C11.6523 20.1969 11.7667 20.7825 12.2154 21.3031C12.6679 21.8238 13.5461 22.1462 14.5523 21.9312C15.2592 21.7812 16.1604 21.5081 16.7598 20.6556C17.3523 19.8156 17.6192 18.6081 17.6717 16.6481C17.6842 16.5406 17.7011 16.4531 17.7167 16.3681L17.8567 16.3813H17.8736C18.6286 16.4138 19.4492 16.3062 20.1361 15.9869C20.7411 15.7069 21.2004 15.4237 21.5354 14.9194C21.6173 14.795 21.7111 14.6425 21.7348 14.3819C21.7604 14.125 21.6104 13.7175 21.3629 13.5294C20.8686 13.1519 20.5561 13.295 20.2204 13.3669C19.8923 13.4388 19.5561 13.4769 19.2211 13.4869C20.1842 11.8662 20.8742 10.1412 21.2686 8.61687C21.5029 7.715 21.6336 6.885 21.6429 6.15938C21.6561 5.43375 21.5948 4.7925 21.1611 4.23625C19.8004 2.50125 17.8892 2.01875 16.4117 2.00312C16.3661 2.00312 16.3211 2.00312 16.2748 2.00312L16.2742 2ZM16.2348 2.53438C17.6317 2.52125 19.4179 2.91188 20.7004 4.55188C20.9904 4.92 21.0754 5.45687 21.0654 6.12125C21.0554 6.78562 20.9323 7.57625 20.7073 8.44562C20.2748 10.1325 19.4504 12.0913 18.2954 13.8531C18.3348 13.8825 18.3798 13.9081 18.4254 13.925C18.6661 14.0256 19.2161 14.11 20.3161 13.8856C20.5929 13.8263 20.7954 13.7881 21.0067 13.9475C21.1111 14.035 21.1661 14.1656 21.1592 14.3025C21.1467 14.4031 21.1111 14.5006 21.0486 14.5825C20.8367 14.9006 20.4179 15.2044 19.8804 15.455C19.4054 15.6756 18.7211 15.79 18.1198 15.7969C17.8142 15.8 17.5342 15.7769 17.2954 15.7019L17.2829 15.6994C17.1911 16.5813 16.9804 18.3263 16.8429 19.12C16.7329 19.7606 16.5404 20.2725 16.1729 20.6531C15.8048 21.0375 15.2873 21.265 14.5873 21.415C13.7217 21.6006 13.0929 21.4019 12.6867 21.06C12.2804 20.7181 12.0942 20.2625 11.9836 19.9856C11.9061 19.7938 11.8667 19.5462 11.8279 19.2137C11.7886 18.8819 11.7629 18.4781 11.7429 18.0194C11.7173 17.3194 11.7073 16.6194 11.7173 15.9163C11.3567 16.2488 10.9073 16.4662 10.4248 16.5512C9.84918 16.6487 9.33793 16.5513 9.0323 16.4763C8.8823 16.4369 8.73543 16.3819 8.59918 16.3069C8.45605 16.2319 8.3223 16.1475 8.23168 15.9775C8.17918 15.88 8.16355 15.7669 8.18605 15.6594C8.21168 15.5487 8.27668 15.4544 8.36543 15.3825C8.53105 15.2481 8.7498 15.1744 9.07793 15.1056C9.6773 14.9812 9.88855 14.8975 10.0154 14.7956C10.1229 14.7112 10.2473 14.5356 10.4611 14.2781C10.4611 14.2688 10.4611 14.2556 10.4579 14.2456C10.0711 14.2331 9.69293 14.1325 9.35105 13.9463C9.22793 14.0763 8.58605 14.7538 7.80855 15.6913C7.48293 16.0813 7.12168 16.3062 6.73793 16.3231C6.3573 16.3387 6.01105 16.1475 5.71855 15.8637C5.13293 15.2937 4.66355 14.3137 4.25668 13.2069C3.8498 12.1 3.52105 10.8669 3.28355 9.81875C3.04918 8.76688 2.90918 7.92062 2.88918 7.51375C2.80168 5.77875 3.20855 4.61062 3.9048 3.87125C4.60105 3.13187 5.55543 2.85563 6.48668 2.80063C8.15668 2.70625 9.7448 3.28875 10.0642 3.4125C10.6823 2.9925 11.4798 2.7325 12.4761 2.74813C12.9486 2.755 13.4167 2.81625 13.8761 2.93062L13.8929 2.92063C14.0948 2.8525 14.2998 2.79062 14.5079 2.74562C15.0748 2.61125 15.6536 2.54312 16.2329 2.53375L16.2348 2.53438ZM16.3617 3.09063H16.2386C15.7636 3.09625 15.2842 3.1525 14.8192 3.25313C15.8573 3.7125 16.6417 4.41813 17.1948 5.12813C17.5792 5.61625 17.8948 6.15312 18.1354 6.72625C18.2304 6.94812 18.2923 7.13313 18.3248 7.27625C18.3442 7.34813 18.3542 7.40937 18.3604 7.47125C18.3604 7.50375 18.3636 7.53687 18.3473 7.59187C18.3473 7.595 18.3442 7.60188 18.3442 7.605C18.3711 8.33438 18.1886 8.82812 18.1648 9.525C18.1492 10.03 18.2792 10.6225 18.3117 11.27C18.3411 11.8781 18.2667 12.5456 17.8723 13.2031C17.9048 13.2425 17.9342 13.2813 17.9667 13.3238C19.0117 11.6763 19.7667 9.85688 20.1673 8.30375C20.3823 7.46688 20.4954 6.70875 20.5054 6.11063C20.5154 5.51125 20.4048 5.075 20.2611 4.89313C19.1411 3.46375 17.6279 3.09875 16.3611 3.09L16.3617 3.09063ZM12.3673 3.305C11.3848 3.30813 10.6779 3.605 10.1417 4.05062C9.5873 4.51312 9.21668 5.14125 8.97605 5.78875C8.68605 6.55375 8.58543 7.29563 8.54605 7.80063L8.55918 7.79375C8.85605 7.62813 9.24605 7.45875 9.66605 7.36438C10.0829 7.26625 10.5354 7.23688 10.9417 7.39688C11.3523 7.5525 11.6873 7.92687 11.8111 8.49C12.3979 11.205 11.6292 12.2144 11.3461 12.9756C11.2386 13.2525 11.1442 13.5325 11.0692 13.8187C11.1048 13.8119 11.1411 13.8019 11.1767 13.7988C11.3786 13.7831 11.5342 13.8481 11.6261 13.8869C11.9129 14.0069 12.1079 14.2544 12.2154 14.5375C12.2411 14.6125 12.2604 14.69 12.2736 14.775C12.2836 14.8075 12.2904 14.8431 12.2904 14.8794C12.2579 15.9175 12.2604 16.9562 12.2998 17.9944C12.3198 18.4437 12.3492 18.8375 12.3848 19.15C12.4204 19.4594 12.4692 19.6969 12.5023 19.7781C12.6092 20.045 12.7654 20.3931 13.0492 20.6306C13.3292 20.8688 13.7323 21.025 14.4717 20.8688C15.1123 20.7288 15.5067 20.5394 15.7698 20.2662C16.0342 19.9894 16.1898 19.6088 16.2904 19.0263C16.4436 18.1506 16.7461 15.6112 16.7823 15.1362C16.7667 14.7744 16.8179 14.4981 16.9354 14.2863C17.0523 14.0713 17.2348 13.9381 17.3948 13.8663C17.4723 13.8306 17.5473 13.8081 17.6092 13.7881C17.5442 13.6975 17.4761 13.6063 17.4073 13.5181C17.1798 13.2413 16.9904 12.9325 16.8504 12.6037C16.7854 12.4662 16.7136 12.3294 16.6354 12.1994C16.5254 12.0013 16.3854 11.75 16.2386 11.4669C15.9454 10.9069 15.6267 10.2238 15.4604 9.55938C15.2948 8.895 15.2723 8.20875 15.6954 7.72688C16.0698 7.29688 16.7304 7.11875 17.7161 7.21937C17.6867 7.13125 17.6711 7.05625 17.6217 6.9425C17.3973 6.415 17.1042 5.92 16.7523 5.47062C15.9154 4.4 14.5579 3.33813 12.4654 3.3025L12.3673 3.305ZM6.83418 3.3475C6.7298 3.3475 6.6223 3.35062 6.51855 3.3575C5.67543 3.40687 4.88105 3.65 4.31105 4.2525C3.74168 4.85813 3.36793 5.84438 3.44855 7.48187C3.46543 7.79437 3.59855 8.66 3.82918 9.69188C4.06105 10.7244 4.38918 11.9388 4.78355 13.0125C5.17668 14.0831 5.65293 15.0175 6.10855 15.46C6.33605 15.6781 6.53418 15.7694 6.71355 15.7631C6.89293 15.7531 7.11105 15.6487 7.37793 15.33C7.86293 14.7444 8.3648 14.1775 8.88543 13.6244C8.13605 12.97 7.76855 11.9812 7.91543 10.9975C7.9998 10.3825 8.01293 9.80563 7.9998 9.35C7.99043 8.9075 7.96043 8.615 7.96043 8.42937C7.96043 8.4225 7.96043 8.41938 7.96043 8.4125V8.40938L7.9573 8.40375C7.9573 7.44313 8.1273 6.49312 8.4523 5.59125C8.68668 4.96875 9.0323 4.34125 9.5523 3.82938C9.04168 3.66 8.13293 3.40687 7.15043 3.3575C7.04605 3.35062 6.93793 3.3475 6.83418 3.3475ZM17.1654 7.74812C16.5998 7.75812 16.2836 7.905 16.1148 8.09312C15.8798 8.36375 15.8573 8.83875 16.0042 9.425C16.1498 10.0106 16.4536 10.665 16.7367 11.2094C16.8767 11.4825 17.0136 11.7269 17.1236 11.925C17.2379 12.1269 17.3192 12.2669 17.3679 12.3906C17.4136 12.5013 17.4661 12.5988 17.5179 12.69C17.7361 12.2275 17.7754 11.775 17.7523 11.3C17.7229 10.7144 17.5867 10.115 17.6092 9.51C17.6323 8.8 17.7723 8.3375 17.7823 7.79063C17.5798 7.765 17.3717 7.74812 17.1667 7.74812H17.1654ZM10.3042 7.84687C10.1317 7.84687 9.95918 7.86938 9.7898 7.90875C9.45418 7.99063 9.1323 8.11375 8.82918 8.28313C8.72855 8.33813 8.63105 8.40062 8.5398 8.4725L8.5198 8.48812C8.52668 8.6125 8.54918 8.905 8.55918 9.34125C8.56918 9.81625 8.55918 10.4213 8.46855 11.0763C8.26668 12.5019 9.30168 13.6806 10.5161 13.6838C10.5879 13.3906 10.7042 13.0937 10.8217 12.7819C11.1598 11.87 11.8242 11.2063 11.2642 8.60875C11.1736 8.18563 10.9911 8.01313 10.7398 7.91563C10.5998 7.86625 10.4542 7.84375 10.3042 7.8475V7.84687ZM16.9023 8.01562H16.9448C16.9967 8.01875 17.0492 8.0225 17.0942 8.035C17.1367 8.045 17.1761 8.05813 17.2086 8.08063C17.2411 8.1 17.2636 8.1325 17.2704 8.17125V8.17813C17.2704 8.2175 17.2604 8.25625 17.2411 8.2925C17.2154 8.3375 17.1861 8.38 17.1504 8.41563C17.0654 8.51 16.9511 8.5725 16.8279 8.59125C16.7073 8.60812 16.5873 8.57563 16.4861 8.50688C16.4467 8.47688 16.4079 8.44437 16.3786 8.40875C16.3492 8.37937 16.3329 8.34062 16.3261 8.30125C16.3236 8.26312 16.3329 8.22375 16.3586 8.19438C16.3886 8.16438 16.4211 8.13875 16.4567 8.11938C16.5373 8.07375 16.6448 8.04125 16.7692 8.02437C16.8142 8.01875 16.8598 8.015 16.9023 8.01188V8.01562ZM10.3848 8.15562C10.4273 8.15562 10.4767 8.15875 10.5223 8.165C10.6523 8.185 10.7629 8.2175 10.8504 8.26938C10.8929 8.28938 10.9323 8.32187 10.9611 8.3575C10.9936 8.39687 11.0092 8.445 11.0067 8.4975C10.9967 8.54562 10.9767 8.59188 10.9442 8.6275C10.9086 8.67 10.8698 8.70563 10.8242 8.735C10.7167 8.81313 10.5836 8.84563 10.4498 8.82938C10.3154 8.80688 10.1923 8.74188 10.1017 8.64125C10.0623 8.59875 10.0298 8.55312 10.0036 8.50437C9.97418 8.45875 9.96168 8.40687 9.96793 8.35437C9.98105 8.26687 10.0561 8.2175 10.1279 8.19187C10.2098 8.165 10.2973 8.15625 10.3848 8.15937V8.15562ZM17.9342 14.275H17.9311C17.8111 14.3206 17.7104 14.3375 17.6254 14.3769C17.5379 14.4094 17.4686 14.4744 17.4273 14.555C17.3717 14.65 17.3298 14.8194 17.3423 15.1081C17.3779 15.135 17.4204 15.1538 17.4667 15.1675C17.6067 15.21 17.8473 15.2394 18.1142 15.2356C18.6448 15.2288 19.2992 15.1056 19.6473 14.9425C19.9304 14.8125 20.1973 14.6369 20.4317 14.4319C19.2698 14.6694 18.6161 14.6075 18.2117 14.4419C18.1142 14.3994 18.0192 14.3437 17.9342 14.275ZM11.2417 14.3531H11.2248C11.1798 14.3562 11.1173 14.3731 10.9904 14.51C10.7004 14.835 10.5998 15.04 10.3623 15.2294C10.1217 15.4212 9.8123 15.5225 9.19043 15.6494C8.99543 15.6888 8.88105 15.7338 8.80605 15.7694C8.82855 15.7894 8.82855 15.7963 8.86418 15.8119C8.95605 15.8644 9.0723 15.9069 9.1673 15.9325C9.43418 15.9975 9.8698 16.0756 10.3292 15.9975C10.7848 15.9194 11.2598 15.7006 11.6673 15.1319C11.7392 15.0344 11.7448 14.8875 11.6867 14.7313C11.6286 14.5788 11.5011 14.4419 11.4136 14.4063C11.3579 14.3794 11.2992 14.3638 11.2411 14.3538L11.2417 14.3531Z" fill="currentColor"/>
</g>
<defs>
<clipPath id="clip0_3343_527">
<rect width="20" height="20" fill="none" transform="translate(2 2)"/>
</clipPath>
</defs>
</svg>
