<svg width="28" height="28" viewBox="0 0 28 28" fill="none" xmlns="http://www.w3.org/2000/svg">
<g clip-path="url(#clip0_6_236)">
<path d="M13.6813 0.000380208C12.5531 0.00154687 11.4483 0.100714 10.375 0.289714L10.4893 0.27338C7.66248 0.772713 7.15031 1.81805 7.15031 3.74538V6.29105H13.8306V7.13921H4.64431C4.62098 7.13921 4.59414 7.13805 4.56731 7.13805C2.54081 7.13805 0.852643 8.58354 0.47581 10.4992L0.471143 10.526C0.172477 11.5434 0.000976562 12.7124 0.000976562 13.921C0.000976562 15.1297 0.172477 16.2987 0.49331 17.4035L0.471143 17.3149C0.945976 19.2924 2.07998 20.7005 4.01781 20.7005H6.31498V17.6485C6.36748 15.37 8.20731 13.5384 10.4846 13.4987H10.4881H17.1603C19.0083 13.4835 20.5005 11.9832 20.5005 10.1329C20.5005 10.1224 20.5005 10.113 20.5005 10.1025V3.74305C20.3791 1.92188 18.9675 0.464713 17.1778 0.272213L17.1615 0.271047C16.1511 0.0972135 14.988 -0.00195312 13.8026 -0.00195312C13.7606 -0.00195312 13.7198 -0.00195312 13.6778 -0.00195312H13.6836L13.6813 0.000380208ZM10.0693 2.04788H10.0891C10.7926 2.04788 11.362 2.61838 11.362 3.32071C11.362 4.02305 10.7915 4.59355 10.0891 4.59355C9.38797 4.59355 8.81864 4.02538 8.81631 3.32421C8.81631 3.32188 8.81631 3.31838 8.81631 3.31488C8.81631 2.61955 9.37631 2.05488 10.0693 2.04788Z" fill="currentColor"/>
<path d="M21.3347 7.13892V10.1046C21.3091 12.4111 19.4634 14.2789 17.1674 14.3396H17.1616H10.4894C8.64139 14.3781 7.15739 15.8819 7.15039 17.7334V24.0952C7.15039 25.9047 8.72422 26.9699 10.4894 27.4902C11.4869 27.8134 12.6349 28.0001 13.8261 28.0001C15.0172 28.0001 16.1652 27.8134 17.2409 27.4681L17.1616 27.4902C18.8416 27.0037 20.5006 26.0226 20.5006 24.0952V21.5472H13.8284V20.6991H23.8407C25.7821 20.6991 26.5054 19.3446 27.1809 17.3134C27.5076 16.2984 27.6954 15.1306 27.6954 13.9184C27.6954 12.7062 27.5076 11.5384 27.1587 10.4429L27.1809 10.5246C26.7014 8.59258 25.7809 7.13892 23.8407 7.13892H21.3347ZM17.5827 23.2471H17.6026C18.3061 23.2471 18.8754 23.8176 18.8754 24.5199C18.8754 25.2222 18.3049 25.7927 17.6026 25.7927C16.8991 25.7927 16.3297 25.2222 16.3297 24.5199C16.3297 24.5187 16.3297 24.5164 16.3297 24.5152C16.3297 24.5129 16.3297 24.5094 16.3297 24.5071C16.3297 23.8129 16.8897 23.2506 17.5827 23.2471Z" fill="currentColor"/>
</g>
<defs>
<clipPath id="clip0_6_236">
<rect width="28" height="28" fill="currentColor"/>
</clipPath>
</defs>
</svg>
