<svg width="24" height="24" viewBox="0 0 24 24" fill="none" xmlns="http://www.w3.org/2000/svg">
<g clip-path="url(#clip0_3343_532)">
<path d="M4.81348 7.40625C6.10854 8.29776 8.89441 8.76949 11.5586 8.76953C14.2188 8.76953 17.0001 8.29903 18.2979 7.41016L17.5498 12.6914C15.7523 12.1475 13.2488 10.9994 12.2354 10.5205C12.2354 10.5164 12.2363 10.5119 12.2363 10.5078C12.2362 10.1189 11.9195 9.80293 11.5303 9.80273C11.1415 9.80273 10.8244 10.1187 10.8242 10.5078C10.8242 10.897 11.1413 11.2139 11.5303 11.2139C11.7011 11.2138 11.8561 11.1501 11.9785 11.0488C13.1706 11.6131 15.6548 12.7447 17.4658 13.2793L16.75 18.334C16.7479 18.3477 16.7471 18.3613 16.7471 18.375C16.7471 18.82 14.7766 19.6376 11.5576 19.6377C8.30432 19.6377 6.3125 18.82 6.3125 18.375C6.31248 18.3616 6.31231 18.348 6.31055 18.335L4.81348 7.40625Z" fill="currentColor"/>
<path d="M18.2334 12.0557C19.2734 12.6786 19.2864 12.9363 19.2861 12.9434C19.2797 12.9485 19.0942 13.09 18.1201 12.8506L18.2334 12.0557Z" fill="currentColor"/>
<path d="M11.5586 4.36328C16.2178 4.36328 18.4397 5.87843 18.4619 6.26562V6.39746C18.2064 7.26434 15.3274 8.18164 11.5586 8.18164C7.78361 8.18158 4.904 7.26153 4.65625 6.39355V6.26562C4.6782 5.87872 6.89909 4.36337 11.5586 4.36328Z" fill="currentColor"/>
<path fill-rule="evenodd" clip-rule="evenodd" d="M23.75 0.25V23.75H0.25V0.25H23.75ZM11.5586 3.77539C6.98632 3.77547 4.06836 5.25464 4.06836 6.27246L4.0957 6.49414L5.72559 18.3975C5.76464 19.7287 9.31542 20.2256 11.5576 20.2256C14.3399 20.2255 17.2958 19.5854 17.334 18.3984L18.0381 13.4355C18.4294 13.5292 18.7521 13.5771 19.0107 13.5771C19.3579 13.5771 19.5929 13.4919 19.7354 13.3223C19.8522 13.1831 19.8966 13.0143 19.8633 12.835C19.7872 12.4284 19.3042 11.9895 18.3213 11.4287L19.0195 6.50488L19.0498 6.27246C19.0498 5.25461 16.1311 3.77539 11.5586 3.77539Z" fill="currentColor"/>
</g>
<defs>
<clipPath id="clip0_3343_532">
<rect width="24" height="24" fill="none"/>
</clipPath>
</defs>
</svg>