<svg width="24" height="24" viewBox="0 0 24 24" fill="none" xmlns="http://www.w3.org/2000/svg">
<path d="M11.9424 1.00077C11.0207 1.00421 10.103 1.11917 9.21014 1.34841C4.91446 2.41683 1.50476 6.30703 1.06762 10.7197C0.525845 14.8936 2.63789 19.2429 6.24791 21.3977C9.7946 23.6171 14.5949 23.5283 18.0658 21.1939C21.1857 19.1679 23.125 15.478 23.0107 11.7524C22.9577 8.06729 20.8883 4.48481 17.7216 2.59168C15.9972 1.52671 13.9684 0.992507 11.9424 1.00008V1.00077ZM11.8812 2.55657C16.4199 2.549 20.8663 6.0592 21.3213 10.7493C22.1894 15.9448 17.8758 21.2262 12.6123 21.3805C7.60683 21.8789 2.76593 17.6334 2.62274 12.6067C2.25031 8.53748 4.9358 4.49651 8.77162 3.15136C9.76086 2.75759 10.8155 2.55657 11.8805 2.56002L11.8812 2.55657ZM16.5568 5.5188C14.0896 7.43258 11.727 9.47303 9.31409 11.4453C10.4183 11.4591 11.5301 11.4591 12.6377 11.4515C13.9319 9.46545 15.2626 7.50555 16.5568 5.5188ZM11.358 12.5426C10.0638 14.5328 8.73031 16.4969 7.43473 18.4871C9.90956 16.576 12.2612 14.5218 14.6885 12.5605C13.5767 12.5468 12.4656 12.5433 11.3573 12.5433L11.358 12.5426Z" fill="currentColor"/>
</svg>
