<svg width="24" height="24" viewBox="0 0 24 24" fill="none" xmlns="http://www.w3.org/2000/svg">
<path d="M6.25 8.5C6.94036 8.5 7.5 7.94036 7.5 7.25C7.5 6.55964 6.94036 6 6.25 6C5.55964 6 5 6.55964 5 7.25C5 7.94036 5.55964 8.5 6.25 8.5Z" stroke="currentColor" stroke-width="1.8" stroke-linecap="round" stroke-linejoin="round"/>
<path d="M6.25 13.5C6.94036 13.5 7.5 12.9404 7.5 12.25C7.5 11.5596 6.94036 11 6.25 11C5.55964 11 5 11.5596 5 12.25C5 12.9404 5.55964 13.5 6.25 13.5Z" stroke="currentColor" stroke-width="1.8" stroke-linecap="round" stroke-linejoin="round"/>
<path d="M6.25 18.5C6.94036 18.5 7.5 17.9404 7.5 17.25C7.5 16.5596 6.94036 16 6.25 16C5.55964 16 5 16.5596 5 17.25C5 17.9404 5.55964 18.5 6.25 18.5Z" stroke="currentColor" stroke-width="1.8" stroke-linecap="round" stroke-linejoin="round"/>
<path d="M10.25 7.25H18.25" stroke="currentColor" stroke-width="1.8" stroke-linecap="round" stroke-linejoin="round"/>
<path d="M10.25 12.25H16.25" stroke="currentColor" stroke-width="1.8" stroke-linecap="round" stroke-linejoin="round"/>
<path d="M10.25 17.25H14.25" stroke="currentColor" stroke-width="1.8" stroke-linecap="round" stroke-linejoin="round"/>
</svg>
