<svg width="24" height="24" viewBox="0 0 24 24" fill="none" xmlns="http://www.w3.org/2000/svg">
<g clip-path="url(#clip0_3343_484)">
<path d="M22.8843 10.7972L18.4864 3.20121C18.1057 2.54164 17.1692 2 16.4034 2H7.61647C6.85505 2 5.91422 2.54164 5.53351 3.20121L1.14002 10.7972C0.759315 11.4568 0.759315 12.5357 1.14002 13.1953L5.53351 20.7957C5.91422 21.4553 6.85068 21.9969 7.61647 21.9969H16.4078C17.1692 21.9969 18.1057 21.4553 18.4908 20.7957L22.8843 13.1953C23.265 12.5357 23.265 11.4568 22.8843 10.7972ZM11.0604 6.20206C11.0604 5.7041 11.4673 5.29787 11.9662 5.29787C12.4651 5.29787 12.872 5.7041 12.872 6.20206V11.6053C12.872 12.1033 12.4651 12.5095 11.9662 12.5095C11.4673 12.5095 11.0604 12.1033 11.0604 11.6053V6.20206ZM11.9662 17.7381C8.57919 17.7381 5.82232 14.9862 5.82232 11.6053C5.8267 9.66592 6.74565 7.84444 8.3035 6.68254C8.66233 6.41609 9.16557 6.49035 9.43251 6.84853C9.69944 7.20671 9.62505 7.70903 9.26622 7.97548C7.25764 9.46499 6.83755 12.2998 8.32976 14.3048C9.82197 16.3097 12.662 16.729 14.6706 15.2395C15.8214 14.3878 16.4997 13.038 16.4997 11.6053C16.4953 10.1682 15.8127 8.81852 14.653 7.96238C14.2942 7.7003 14.2198 7.1936 14.4824 6.83543C14.7449 6.47725 15.2526 6.40299 15.6114 6.66507C17.1824 7.8226 18.1057 9.65718 18.1101 11.6053C18.1101 14.9906 15.3532 17.7381 11.9662 17.7381Z" fill="currentColor"/>
</g>
<defs>
<clipPath id="clip0_3343_484">
<rect width="23.998" height="23.998" fill="none"/>
</clipPath>
</defs>
</svg>
