<svg width="100" height="100" viewBox="0 0 100 100" fill="none" xmlns="http://www.w3.org/2000/svg">
<path d="M91.6288 49.2402C91.7726 40.3631 89.7726 29.8069 85.6059 17.4215L82.3393 7.70898L77.9018 16.9444C77.6643 17.4382 77.3934 17.9215 77.1101 18.3986C69.8205 12.1402 60.3622 8.33398 49.9997 8.33398C26.9872 8.33398 8.33301 26.9881 8.33301 50.0006C8.33301 73.0131 26.9872 91.6673 49.9997 91.6673C73.0122 91.6673 91.6663 73.0131 91.6663 50.0006C91.6663 49.7444 91.633 49.4965 91.6288 49.2402Z" fill="currentColor"/>
<path d="M82.0521 67.8292C75.5458 76.7917 64.0292 77.2729 53.1896 77.0833H39.0625H35.025C44.25 73.7646 49.7396 72.975 55.3458 70C65.9042 64.4479 76.3417 52.3 78.5146 39.6625C74.4937 51.8208 62.3083 62.2667 51.2042 66.5146C43.5958 69.4167 29.8542 72.2333 29.8542 72.2333L29.2979 71.9312C19.9438 67.225 19.6604 46.2792 36.6667 39.5167C44.1125 36.5521 51.2354 38.1812 59.2792 36.1979C67.8667 34.0896 77.8 27.4312 81.8417 18.75C86.3667 32.6396 91.8125 54.3875 82.0521 67.8292ZM32.6417 80.0937C32.0542 80.8229 31.1563 81.25 30.2188 81.25C28.5042 81.25 27.1042 79.8396 27.1042 78.125C27.1042 76.4104 28.5146 75 30.2188 75C30.9292 75 31.6292 75.2458 32.1792 75.7C33.5125 76.7812 33.7208 78.7604 32.6417 80.0937Z" fill="currentColor"/>
</svg>
