<svg width="28" height="28" viewBox="0 0 28 28" fill="none" xmlns="http://www.w3.org/2000/svg">
<g clip-path="url(#clip0_3221_472)">
<path d="M0 14V28H28V0H0V14ZM22.5627 12.8835C23.2741 13.0611 23.8158 13.3805 24.3171 13.895C24.5726 14.168 24.955 14.6694 24.9874 14.7928C24.9961 14.8295 23.7799 15.645 23.0414 16.1009C23.0143 16.1192 22.9049 16.0055 22.7859 15.827C22.4263 15.3029 22.0474 15.0754 21.469 15.0342C20.6211 14.9791 20.0743 15.4219 20.0786 16.1648C20.0743 16.3468 20.1154 16.5296 20.1968 16.6889C20.384 17.0765 20.7349 17.3084 21.819 17.7783C23.8245 18.6393 24.6811 19.2089 25.214 20.0156C25.8107 20.9178 25.9429 22.358 25.5421 23.4334C25.0959 24.5954 23.9925 25.3881 22.4429 25.648C21.9643 25.7346 20.825 25.7206 20.3096 25.6252C19.1844 25.4249 18.1177 24.8684 17.4615 24.1395C17.2016 23.8569 16.7002 23.114 16.7326 23.0641C16.7466 23.0457 16.8604 22.9731 16.9881 22.8996C17.1159 22.8261 17.5849 22.5531 18.0276 22.2976L18.8344 21.8286L19.0033 22.0789C19.2404 22.4385 19.7549 22.9311 20.0655 23.0947C20.9589 23.569 22.1848 23.5008 22.7911 22.9583C23.037 22.7535 23.1744 22.4385 23.156 22.12C23.156 21.7963 23.1149 21.651 22.946 21.4086C22.7273 21.0989 22.2854 20.8346 21.0227 20.2878C19.5781 19.663 18.9534 19.2806 18.389 18.6655C18.0338 18.2595 17.7695 17.7817 17.619 17.2664C17.514 16.87 17.4869 15.876 17.5691 15.4796C17.8658 14.0805 18.9228 13.1101 20.44 12.8231C20.9326 12.7277 22.0806 12.7636 22.5636 12.8826L22.5627 12.8835ZM15.9915 14.0551L16.0002 15.1988H12.3541V25.5579H9.77462V15.1988H6.13375V14.0779C6.13375 13.4531 6.14775 12.9342 6.16525 12.9202C6.17925 12.9019 8.39388 12.8931 11.0828 12.8975L15.9775 12.9115L15.9915 14.0551Z" fill="currentColor"/>
</g>
<defs>
<clipPath id="clip0_3221_472">
<rect width="28" height="28" fill="currentColor"/>
</clipPath>
</defs>
</svg>
