<svg width="351" height="351" viewBox="0 0 351 351" fill="none" xmlns="http://www.w3.org/2000/svg">
  <rect width="351" height="351" />
  <path
    d="M174.127 240.556C229.432 240.556 274.266 195.722 274.266 140.417C274.266 85.1119 229.432 40.2783 174.127 40.2783C118.822 40.2783 73.9885 85.1119 73.9885 140.417C73.9885 195.722 118.822 240.556 174.127 240.556Z"
    fill="var(--svg-bg, white)"
    stroke="var(--svg-fg, currentColor)"
    stroke-width="4"
  />
  <path
    d="M159.346 59.8605C160.769 56.2207 159.595 52.3593 156.722 51.2358C153.85 50.1124 150.367 52.1524 148.943 55.7923C147.52 59.4321 148.695 63.2935 151.567 64.4169C154.44 65.5404 157.922 63.5004 159.346 59.8605Z"
    fill="var(--svg-bg, white)"
    stroke="var(--svg-fg, currentColor)"
    stroke-width="2"
  />
  <path
    d="M201.186 62.4406C202.61 58.8008 201.435 54.9393 198.563 53.8159C195.69 52.6925 192.208 54.7325 190.784 58.3723C189.361 62.0122 190.535 65.8736 193.408 66.997C196.28 68.1205 199.763 66.0805 201.186 62.4406Z"
    fill="var(--svg-bg, white)"
    stroke="var(--svg-fg, currentColor)"
    stroke-width="2"
  />
  <path
    d="M163.221 74.98C163.221 74.98 164.526 82.2508 173.369 82.2508C182.211 82.2508 185.033 76.2547 185.033 76.2547"
    fill="var(--svg-bg, white)"
    stroke="var(--svg-fg, currentColor)"
    stroke-width="3.89033"
    stroke-miterlimit="10"
    stroke-linecap="round"
  />

  <path
    d="M242.211 287.069C275.589 287.069 302.647 260.011 302.647 226.632C302.647 193.254 275.589 166.195 242.211 166.195C208.832 166.195 181.774 193.254 181.774 226.632C181.774 260.011 208.832 287.069 242.211 287.069Z"
    fill="var(--svg-bg, white)"
    stroke="var(--svg-fg, currentColor)"
    stroke-width="4"
  />
  <path
    d="M231.723 182.52C232.711 179.993 231.895 177.311 229.901 176.531C227.906 175.751 225.488 177.168 224.499 179.695C223.511 182.223 224.326 184.904 226.321 185.684C228.316 186.464 230.734 185.048 231.723 182.52Z"
    fill="var(--svg-bg, white)"
    stroke="var(--svg-fg, currentColor)"
    stroke-width="2"
  />
  <path
    d="M260.777 184.312C261.765 181.784 260.949 179.103 258.955 178.323C256.96 177.542 254.542 178.959 253.553 181.487C252.565 184.014 253.38 186.695 255.375 187.475C257.37 188.256 259.788 186.839 260.777 184.312Z"
    fill="var(--svg-bg, white)"
    stroke="var(--svg-fg, currentColor)"
    stroke-width="2"
  />
  <path
    d="M235.413 194.117C235.413 194.117 236.121 198.208 240.92 198.208C245.719 198.208 247.251 194.834 247.251 194.834"
    fill="var(--svg-bg, white)"
    stroke="var(--svg-fg, currentColor)"
    stroke-width="3.183"
    stroke-miterlimit="10"
    stroke-linecap="round"
  />

  <path
    d="M107.656 287.069C141.034 287.069 168.093 260.011 168.093 226.632C168.093 193.254 141.034 166.195 107.656 166.195C74.2774 166.195 47.2189 193.254 47.2189 226.632C47.2189 260.011 74.2774 287.069 107.656 287.069Z"
    fill="var(--svg-bg, white)"
    stroke="var(--svg-fg, currentColor)"
    stroke-width="4"
  />
  <path
    d="M96.8823 182.52C97.8708 179.993 97.0551 177.311 95.0605 176.531C93.0658 175.751 90.6474 177.168 89.659 179.695C88.6705 182.223 89.4861 184.904 91.4808 185.684C93.4755 186.464 95.8939 185.048 96.8823 182.52Z"
    fill="var(--svg-bg, white)"
    stroke="var(--svg-fg, currentColor)"
    stroke-width="2"
  />
  <path
    d="M125.936 184.312C126.925 181.784 126.109 179.103 124.115 178.323C122.12 177.542 119.702 178.959 118.713 181.487C117.725 184.014 118.54 186.695 120.535 187.475C122.53 188.256 124.948 186.839 125.936 184.312Z"
    fill="var(--svg-bg, white)"
    stroke="var(--svg-fg, currentColor)"
    stroke-width="2"
  />
  <path
    d="M100.573 194.117C100.573 194.117 101.281 198.208 106.08 198.208C110.879 198.208 112.411 194.834 112.411 194.834"
    fill="var(--svg-bg, white)"
    stroke="var(--svg-fg, currentColor)"
    stroke-width="3.183"
    stroke-miterlimit="10"
    stroke-linecap="round"
  />

  <path
    d="M174.318 313.993C207.697 313.993 234.755 286.934 234.755 253.556C234.755 220.178 207.697 193.119 174.318 193.119C140.94 193.119 113.882 220.178 113.882 253.556C113.882 286.934 140.94 313.993 174.318 313.993Z"
    fill="var(--svg-bg, white)"
    stroke="var(--svg-fg, currentColor)"
    stroke-width="4"
  />
  <path
    d="M164.303 211.273C165.291 208.745 164.475 206.064 162.481 205.284C160.486 204.504 158.068 205.92 157.079 208.448C156.091 210.975 156.906 213.657 158.901 214.437C160.896 215.217 163.314 213.8 164.303 211.273Z"
    fill="var(--svg-bg, white)"
    stroke="var(--svg-fg, currentColor)"
    stroke-width="2"
  />
  <path
    d="M193.356 213.064C194.345 210.537 193.529 207.856 191.535 207.075C189.54 206.295 187.122 207.712 186.133 210.239C185.145 212.767 185.96 215.448 187.955 216.228C189.95 217.009 192.368 215.592 193.356 213.064Z"
    fill="var(--svg-bg, white)"
    stroke="var(--svg-fg, currentColor)"
    stroke-width="2"
  />
  <path
    d="M167.993 222.87C167.993 222.87 168.701 226.961 173.5 226.961C178.299 226.961 179.831 223.587 179.831 223.587"
    fill="var(--svg-bg, white)"
    stroke="var(--svg-fg, currentColor)"
    stroke-width="3.183"
    stroke-miterlimit="10"
    stroke-linecap="round"
  />
</svg>