<svg width="527" height="527" viewBox="0 0 527 527" fill="none" xmlns="http://www.w3.org/2000/svg">
<path d="M62 247.802V136.109H144.461V166.65H97.7766V181.921H138.353V208.972H97.7766V247.802H62Z" stroke="var(--svg-fg, currentColor)" stroke-width="6"/>
<path d="M264.443 188.901C264.443 221.431 238.073 248.676 205.543 248.676C173.013 248.676 146.643 222.306 146.643 189.776C146.643 157.246 173.013 130.875 205.543 130.875C221.106 130.875 235.259 136.911 245.789 146.769C237.793 154.863 232.108 165.245 229.805 176.845C225.178 168.183 216.049 162.289 205.543 162.289C190.363 162.289 178.056 174.595 178.056 189.776C178.056 204.957 190.363 217.263 205.543 217.263C220.724 217.263 233.03 204.081 233.03 188.901M264.443 188.901C264.443 188.463 264.453 189.336 264.443 188.901ZM264.443 188.901C264.423 188.467 264.443 189.339 264.443 188.901ZM264.443 188.901C264.443 173.72 276.75 161.414 291.93 161.414C307.111 161.414 319.417 173.72 319.417 188.901C319.417 204.081 307.111 216.388 291.93 216.388C281.424 216.388 272.295 210.493 267.669 201.831C265.365 213.431 259.68 223.813 251.685 231.908C262.215 241.766 276.368 247.801 291.93 247.801C324.46 247.801 350.831 221.431 350.831 188.901C350.831 156.371 324.46 130 291.93 130C259.4 130 233.03 156.371 233.03 188.901M233.03 188.901C233.05 189.334 233.03 188.462 233.03 188.901ZM233.03 188.901C233.03 189.338 233.02 188.465 233.03 188.901Z" stroke="var(--svg-fg, currentColor)" stroke-width="6"/>
<path d="M413.221 136.107V139.107V139.107V136.107ZM466.886 191.081L469.886 191.057V191.057L466.886 191.081ZM413.221 247.801V250.801H413.269L413.317 250.799L413.221 247.801ZM358.684 247.801H355.684V250.801H358.684V247.801ZM358.684 136.107V133.107H355.684V136.107H358.684ZM394.46 165.777V162.777H391.46V165.777H394.46ZM394.46 218.133H391.46V221.133H394.46V218.133ZM412.092 218.133V221.133H412.33L412.565 221.095L412.092 218.133ZM431.108 191.519H434.108V191.519L431.108 191.519ZM412.092 165.777L412.698 162.839L412.398 162.777H412.092V165.777ZM413.221 136.107C413.221 139.107 413.219 139.107 413.218 139.107C413.218 139.107 413.217 139.107 413.217 139.107C413.217 139.107 413.217 139.107 413.218 139.107C413.221 139.107 413.226 139.107 413.235 139.108C413.252 139.108 413.282 139.108 413.323 139.109C413.407 139.11 413.539 139.113 413.715 139.119C414.069 139.131 414.602 139.156 415.288 139.207C416.662 139.308 418.646 139.512 421.036 139.923C425.83 140.747 432.184 142.39 438.518 145.647C444.837 148.897 451.094 153.731 455.805 160.94C460.507 168.135 463.781 177.867 463.886 191.105L466.886 191.081L469.886 191.057C469.773 176.808 466.23 165.925 460.828 157.658C455.435 149.406 448.304 143.933 441.262 140.311C434.233 136.697 427.253 134.904 422.053 134.01C419.446 133.562 417.268 133.336 415.729 133.223C414.959 133.166 414.348 133.137 413.922 133.123C413.708 133.115 413.541 133.111 413.423 133.11C413.364 133.109 413.318 133.108 413.284 133.108C413.267 133.108 413.253 133.108 413.243 133.107C413.237 133.107 413.233 133.107 413.229 133.107C413.227 133.107 413.225 133.107 413.224 133.107C413.222 133.107 413.221 133.107 413.221 136.107ZM466.886 191.081L463.886 191.105C463.991 204.332 460.822 214.17 456.152 221.528C451.471 228.903 445.175 233.953 438.786 237.419C432.386 240.891 425.941 242.746 421.074 243.728C418.646 244.218 416.629 244.488 415.232 244.635C414.533 244.708 413.99 244.75 413.63 244.774C413.45 244.786 413.316 244.793 413.23 244.798C413.187 244.8 413.157 244.801 413.139 244.802C413.13 244.802 413.124 244.802 413.122 244.802C413.121 244.802 413.12 244.802 413.12 244.802C413.121 244.802 413.121 244.802 413.122 244.802C413.123 244.802 413.124 244.802 413.221 247.801C413.317 250.799 413.319 250.799 413.321 250.799C413.322 250.799 413.324 250.799 413.326 250.799C413.33 250.799 413.334 250.799 413.339 250.798C413.35 250.798 413.364 250.798 413.381 250.797C413.415 250.795 413.462 250.793 413.522 250.791C413.641 250.785 413.81 250.775 414.026 250.761C414.458 250.733 415.078 250.684 415.858 250.602C417.417 250.438 419.623 250.142 422.261 249.61C427.524 248.547 434.576 246.529 441.647 242.693C448.73 238.851 455.877 233.157 461.218 224.743C466.569 216.312 469.999 205.317 469.886 191.057L466.886 191.081ZM413.221 247.801V244.801H358.684V247.801V250.801H413.221V247.801ZM358.684 247.801H361.684V136.107H358.684H355.684V247.801H358.684ZM358.684 136.107V139.107H413.221V136.107V133.107H358.684V136.107ZM394.46 165.777H391.46V218.133H394.46H397.46V165.777H394.46ZM394.46 218.133V221.133H412.092V218.133V215.133H394.46V218.133ZM412.092 218.133C412.565 221.095 412.566 221.095 412.568 221.095C412.569 221.095 412.571 221.094 412.572 221.094C412.575 221.094 412.579 221.093 412.582 221.092C412.589 221.091 412.597 221.09 412.607 221.088C412.625 221.085 412.649 221.081 412.677 221.076C412.732 221.066 412.806 221.052 412.896 221.034C413.077 220.998 413.325 220.944 413.631 220.868C414.243 220.716 415.09 220.475 416.095 220.107C418.098 219.374 420.767 218.121 423.445 216.034C428.909 211.775 434.108 204.257 434.108 191.519H431.108H428.108C428.108 202.36 423.8 208.149 419.756 211.302C417.679 212.921 415.594 213.901 414.031 214.473C413.253 214.758 412.615 214.938 412.186 215.045C411.973 215.098 411.812 215.132 411.714 215.152C411.666 215.162 411.632 215.168 411.616 215.171C411.608 215.172 411.604 215.173 411.604 215.173C411.605 215.173 411.606 215.172 411.608 215.172C411.61 215.172 411.611 215.172 411.613 215.171C411.614 215.171 411.615 215.171 411.616 215.171C411.617 215.171 411.619 215.17 412.092 218.133ZM431.108 191.519L434.108 191.519C434.108 179.581 428.84 172.31 423.445 168.102C420.792 166.033 418.151 164.731 416.172 163.944C415.179 163.549 414.342 163.28 413.74 163.106C413.439 163.019 413.195 162.956 413.018 162.913C412.93 162.891 412.859 162.875 412.805 162.862C412.778 162.856 412.756 162.851 412.738 162.848C412.729 162.846 412.721 162.844 412.715 162.843C412.711 162.842 412.708 162.841 412.706 162.841C412.704 162.841 412.702 162.84 412.702 162.84C412.7 162.84 412.698 162.839 412.092 165.777C411.485 168.715 411.484 168.715 411.482 168.715C411.482 168.715 411.48 168.714 411.48 168.714C411.478 168.714 411.477 168.714 411.476 168.713C411.474 168.713 411.473 168.713 411.473 168.713C411.474 168.713 411.479 168.714 411.488 168.716C411.506 168.72 411.541 168.728 411.592 168.741C411.694 168.766 411.859 168.808 412.078 168.871C412.515 168.997 413.165 169.205 413.955 169.519C415.541 170.15 417.653 171.194 419.755 172.833C423.868 176.042 428.108 181.642 428.108 191.519L431.108 191.519ZM412.092 165.777V162.777H394.46V165.777V168.777H412.092V165.777Z" fill="var(--svg-fg, currentColor)"/>
<path d="M76.7298 339.422V266.123M76.7298 266.123H133.884C133.884 266.123 170.359 266.582 170.359 304.098C170.359 330.293 150.463 335.931 150.463 335.931L175.332 378.252H135.629L114.25 341.603H109.451V378.252H76.7285V335.931L76.7298 266.123ZM109.887 316.734V294.046H127.776C127.776 294.046 136.938 295.748 136.938 305.201C136.938 315.419 127.776 316.734 127.776 316.734H109.887Z" stroke="var(--svg-fg, currentColor)" stroke-width="6"/>
<path d="M225.508 266.998L185.805 361.239V371.274C185.805 371.274 209.801 378.691 234.67 378.691C259.539 378.691 281.354 371.274 281.354 371.274V361.239L241.651 266.998H225.508Z" stroke="var(--svg-fg, currentColor)" stroke-width="6"/>
<path d="M185.805 379.125V389.16C185.805 389.16 206.311 396.577 233.361 396.577C260.412 396.577 281.354 389.16 281.354 389.16V379.125C281.354 379.125 256.049 386.542 233.361 386.542C210.674 386.542 185.805 379.125 185.805 379.125Z" stroke="var(--svg-fg, currentColor)" stroke-width="6"/>
<rect x="291.387" y="266.998" width="35.7766" height="110.82" stroke="var(--svg-fg, currentColor)" stroke-width="6"/>
<path d="M375.595 378.252H342V266.123H374.286L414.426 322.842V266.123H447.585V378.252H416.607L375.595 322.842V378.252Z" stroke="var(--svg-fg, currentColor)" stroke-width="6"/>
</svg>