<svg width="556" height="556" viewBox="0 0 556 556" fill="none" xmlns="http://www.w3.org/2000/svg">
<circle cx="278.197" cy="278.197" r="199.697" stroke="currentColor" stroke-width="7"/>
<circle cx="278" cy="278" r="223.5" stroke="currentColor" stroke-width="7"/>
<path d="M167.17 245.093L156.684 235.931C155.753 235.118 156.328 233.586 157.564 233.586H206.482C207.673 233.586 208.27 235.027 207.427 235.869L198.188 245.109C197.686 245.61 197.405 246.291 197.405 247V368.582C197.405 383.076 203.416 396.921 214.005 406.818C214.352 407.142 214.122 407.724 213.648 407.724H155.201C154.729 407.724 154.475 407.17 154.782 406.812C163.366 396.805 168.085 384.055 168.085 370.87V247.107C168.085 246.335 167.752 245.601 167.17 245.093Z" stroke="currentColor" stroke-width="7"/>
<path d="M272.128 407.724H231.783C231.347 407.724 231.075 407.251 231.294 406.874C236.289 398.253 238.919 388.466 238.919 378.502V353.678C238.919 348.064 238.284 342.468 237.027 336.997L230.801 309.906L226.353 289L223.685 266.13V225.466C223.685 213.958 225.866 202.554 230.113 191.859L233.507 183.314C237.055 174.378 242.845 166.507 250.319 160.459L255.111 156.582C261.974 151.029 270.534 148 279.361 148C285.875 148 292.283 149.651 297.987 152.798L305.785 157.101C306.391 157.435 307.148 157.299 307.599 156.775L310.463 153.453C312.082 151.575 315.164 152.72 315.164 155.2V193.617C315.164 196.583 311.055 197.345 309.992 194.576L306.915 186.562C306.855 186.406 306.77 186.261 306.663 186.132L300.661 178.883C298.366 176.112 295.563 173.805 292.401 172.087L289.077 170.281C285.756 168.476 281.93 167.821 278.198 168.42C273.201 169.221 268.814 172.193 266.218 176.537L262.634 182.534C257.686 190.812 254.668 200.1 253.804 209.705L252.22 227.319C251.435 236.05 251.462 244.834 252.301 253.56L255.117 282.847L264.115 320.1C265.141 324.346 267.819 328.007 271.555 330.27L273.373 331.371C277.958 334.149 283.767 333.883 288.079 330.697C291.453 328.204 293.443 324.259 293.443 320.064V264.381C293.443 252.688 288.157 241.622 279.061 234.274C278.777 234.045 278.939 233.586 279.304 233.586H335.669C336.043 233.586 336.2 234.064 335.898 234.285C325.984 241.583 320.131 253.16 320.131 265.471V355.486C320.131 362.713 322.464 369.747 326.784 375.541L331.011 381.212C334.684 386.139 340.469 389.042 346.614 389.042C352.168 389.042 357.456 386.67 361.149 382.522L363.324 380.08C367.686 375.18 370.097 368.849 370.097 362.289V262.436C370.097 251.85 365.858 241.704 358.328 234.264C358.076 234.015 358.253 233.586 358.607 233.586H400.598C400.95 233.586 401.133 234.008 400.891 234.265C393.872 241.734 389.964 251.598 389.964 261.848V358.318C389.964 370.688 385.323 382.609 376.959 391.723C367.602 401.919 354.397 407.724 340.558 407.724H338.879C329.43 407.724 320.19 404.95 312.302 399.747L310.239 398.386C305.576 395.31 301.661 391.227 298.783 386.438C295.289 380.623 293.443 373.968 293.443 367.185V346.398C293.443 345.837 292.878 345.453 292.356 345.658C283.247 349.249 273.132 349.352 263.951 345.949L263.144 345.65C262.595 345.446 262.011 345.852 262.011 346.438V376.828C262.011 387.762 265.711 398.374 272.508 406.938C272.76 407.256 272.534 407.724 272.128 407.724Z" stroke="currentColor" stroke-width="7"/>
<path d="M224.333 307.774C227.89 311.311 227.865 317.074 224.276 320.579C220.776 323.999 215.185 323.99 211.694 320.561C208.131 317.06 208.106 311.325 211.638 307.793C215.142 304.289 220.819 304.281 224.333 307.774Z" stroke="currentColor" stroke-width="7"/>
</svg>
